<?xml version="1.0" encoding="utf-8"?>
<!-- generated at drububu.com  -->
<!DOCTYPE svg PUBLIC "-//W3C//DTD SVG 1.1//EN" "http://www.w3.org/Graphics/SVG/1.1/DTD/svg11.dtd">
<svg version="1.1" preserveAspectRatio="xMinYMin meet" xmlns="http://www.w3.org/2000/svg" xmlns:xlink="http://www.w3.org/1999/xlink" x="0px" y="0px" width="32px" height="42px" viewBox="0 0 32 42">
<path d="M0 0h12v1h-2v1h-1v1h-3v1h-2v2h-1v1h-1v2h-1v2h-1v-11z" fill="rgb(255,255,255)"/>
<path d="M12 0h9v1h-9v-1z" fill="rgb(4,0,0)"/>
<path d="M21 0h11v11h-1v-1h-1v-1h-1v-2h-1v-1h-1v-2h-1v-1h-2v-1h-2v-1h-1v-1z" fill="rgb(255,255,255)"/>
<path d="M10 1h1v1h-1v-1z" fill="rgb(36,0,0)"/>
<path d="M11 1h1v1h-1v-1z" fill="rgb(32,0,0)"/>
<path d="M12 1h1v1h-1v-1z" fill="rgb(104,62,28)"/>
<path d="M13 1h1v1h-1v-1z" fill="rgb(199,158,124)"/>
<path d="M14 1h1v1h-1v-1z" fill="rgb(201,160,127)"/>
<path d="M15 1h2v1h-2v-1z" fill="rgb(200,159,126)"/>
<path d="M17 1h1v1h-1v-1z" fill="rgb(203,161,128)"/>
<path d="M18 1h1v1h-1v-1z" fill="rgb(197,156,124)"/>
<path d="M19 1h1v1h-1v-1z" fill="rgb(40,4,0)"/>
<path d="M20 1h1v1h-1v-1z" fill="rgb(26,0,0)"/>
<path d="M21 1h1v1h-1v-1z" fill="rgb(40,4,0)"/>
<path d="M9 2h1v1h-1v-1z" fill="rgb(40,4,0)"/>
<path d="M10 2h1v1h-1v-1z" fill="rgb(97,56,22)"/>
<path d="M11 2h1v1h1v1h-2v-2z" fill="rgb(104,62,28)"/>
<path d="M12 2h1v1h-1v-1z" fill="rgb(197,156,124)"/>
<path d="M13 2h1v1h-1v-1z" fill="rgb(108,67,33)"/>
<path d="M14 2h4v1h-4v-1z" fill="rgb(104,62,28)"/>
<path d="M18 2h1v1h-1v-1z" fill="rgb(108,67,33)"/>
<path d="M19 2h1v1h-1v-1z" fill="rgb(197,156,124)"/>
<path d="M20 2h1v1h-1v-1z" fill="rgb(201,160,127)"/>
<path d="M21 2h1v1h-1v-1z" fill="rgb(192,149,117)"/>
<path d="M22 2h2v1h-2v-1z" fill="rgb(32,0,0)"/>
<path d="M6 3h1v2h-1v-2z" fill="rgb(16,0,0)"/>
<path d="M7 3h1v1h-1v-1z" fill="rgb(26,0,0)"/>
<path d="M8 3h1v1h-1v-1z" fill="rgb(40,4,0)"/>
<path d="M9 3h1v1h-1v-1z" fill="rgb(97,56,22)"/>
<path d="M10 3h1v1h-1v-1z" fill="rgb(108,67,33)"/>
<path d="M13 3h5v1h-5v-1z" fill="rgb(97,56,22)"/>
<path d="M18 3h1v1h-1v-1z" fill="rgb(104,62,28)"/>
<path d="M19 3h1v1h-1v-1z" fill="rgb(186,139,104)"/>
<path d="M20 3h1v1h-1v-1z" fill="rgb(202,152,113)"/>
<path d="M21 3h1v1h-1v-1z" fill="rgb(186,139,104)"/>
<path d="M22 3h2v1h-2v-1z" fill="rgb(4,0,0)"/>
<path d="M24 3h1v2h-1v-2z" fill="rgb(32,0,0)"/>
<path d="M25 3h1v2h-1v-2z" fill="rgb(4,0,0)"/>
<path d="M4 4h1v1h-1v-1z" fill="rgb(32,0,0)"/>
<path d="M5 4h1v2h-2v-1h1v-1z" fill="rgb(26,0,0)"/>
<path d="M7 4h1v1h-1v-1z" fill="rgb(45,7,4)"/>
<path d="M8 4h1v1h-1v-1z" fill="rgb(193,152,119)"/>
<path d="M9 4h1v1h-1v-1z" fill="rgb(131,95,65)"/>
<path d="M10 4h2v1h1v-1h1v2h-1v1h-1v1h-1v-3h-1v-1z" fill="rgb(122,87,59)"/>
<path d="M12 4h1v1h-1v-1z" fill="rgb(121,86,58)"/>
<path d="M14 4h1v1h-1v-1z" fill="rgb(121,86,58)"/>
<path d="M15 4h1v1h-1v-1z" fill="rgb(118,83,55)"/>
<path d="M16 4h2v1h-2v-1z" fill="rgb(120,85,57)"/>
<path d="M18 4h1v1h-1v-1z" fill="rgb(112,78,50)"/>
<path d="M19 4h1v1h-1v-1z" fill="rgb(120,85,57)"/>
<path d="M20 4h1v1h-1v-1z" fill="rgb(193,152,119)"/>
<path d="M21 4h1v1h-1v-1z" fill="rgb(203,161,128)"/>
<path d="M22 4h1v1h-1v-1z" fill="rgb(199,158,124)"/>
<path d="M23 4h1v1h-1v-1z" fill="rgb(123,88,60)"/>
<path d="M26 4h1v1h-1v-1z" fill="rgb(40,4,0)"/>
<path d="M6 5h1v1h-1v-1z" fill="rgb(40,4,0)"/>
<path d="M7 5h1v1h-1v-1z" fill="rgb(197,156,124)"/>
<path d="M8 5h1v1h-1v-1z" fill="rgb(135,100,69)"/>
<path d="M9 5h2v3h-1v-1h-1v-2z" fill="rgb(121,86,58)"/>
<path d="M14 5h1v1h-1v-1z" fill="rgb(120,85,57)"/>
<path d="M15 5h1v1h-1v-1z" fill="rgb(123,88,60)"/>
<path d="M16 5h1v1h-1v-1z" fill="rgb(116,81,53)"/>
<path d="M17 5h1v1h-1v-1z" fill="rgb(118,83,55)"/>
<path d="M18 5h1v1h-1v-1z" fill="rgb(120,85,57)"/>
<path d="M19 5h2v1h-2v-1z" fill="rgb(112,78,50)"/>
<path d="M21 5h1v1h-1v-1z" fill="rgb(119,84,56)"/>
<path d="M22 5h2v1h-2v-1z" fill="rgb(207,165,131)"/>
<path d="M24 5h1v1h-1v-1z" fill="rgb(122,87,59)"/>
<path d="M25 5h2v1h-2v-1z" fill="rgb(26,0,0)"/>
<path d="M3 6h1v1h-1v-1z" fill="rgb(31,6,4)"/>
<path d="M4 6h1v1h-1v-1z" fill="rgb(40,4,0)"/>
<path d="M5 6h1v1h-1v-1z" fill="rgb(192,149,117)"/>
<path d="M6 6h1v1h-1v-1z" fill="rgb(48,10,6)"/>
<path d="M7 6h1v1h-1v-1z" fill="rgb(124,89,60)"/>
<path d="M8 6h1v2h1v1h-2v-3z" fill="rgb(125,90,61)"/>
<path d="M13 6h1v1h-1v-1z" fill="rgb(118,83,55)"/>
<path d="M14 6h1v1h-1v-1z" fill="rgb(121,86,58)"/>
<path d="M15 6h1v1h-1v-1z" fill="rgb(196,154,123)"/>
<path d="M16 6h1v1h-1v-1z" fill="rgb(122,87,59)"/>
<path d="M17 6h1v1h-1v-1z" fill="rgb(112,78,50)"/>
<path d="M18 6h1v1h-1v-1z" fill="rgb(196,154,123)"/>
<path d="M19 6h1v1h-1v-1z" fill="rgb(201,160,127)"/>
<path d="M20 6h1v1h-1v-1z" fill="rgb(196,154,123)"/>
<path d="M21 6h1v1h-1v-1z" fill="rgb(195,153,122)"/>
<path d="M22 6h1v1h-1v-1z" fill="rgb(196,154,123)"/>
<path d="M23 6h1v1h-1v-1z" fill="rgb(203,161,128)"/>
<path d="M24 6h1v1h-1v-1z" fill="rgb(207,165,131)"/>
<path d="M25 6h1v1h-1v-1z" fill="rgb(121,86,58)"/>
<path d="M26 6h1v1h-1v-1z" fill="rgb(16,0,0)"/>
<path d="M27 6h1v1h-1v-1z" fill="rgb(36,6,6)"/>
<path d="M2 7h2v1h-1v1h-1v-2z" fill="rgb(26,0,0)"/>
<path d="M4 7h1v1h-1v-1z" fill="rgb(193,152,119)"/>
<path d="M5 7h1v1h-1v-1z" fill="rgb(140,105,76)"/>
<path d="M6 7h1v1h-1v-1z" fill="rgb(32,0,0)"/>
<path d="M7 7h1v1h-1v-1z" fill="rgb(120,85,57)"/>
<path d="M9 7h1v1h-1v-1z" fill="rgb(119,84,56)"/>
<path d="M12 7h1v1h-1v-1z" fill="rgb(120,85,57)"/>
<path d="M13 7h1v1h-1v-1z" fill="rgb(112,78,50)"/>
<path d="M14 7h1v1h-1v-1z" fill="rgb(127,92,62)"/>
<path d="M15 7h1v1h-1v-1z" fill="rgb(205,162,130)"/>
<path d="M16 7h1v1h-1v-1z" fill="rgb(196,154,123)"/>
<path d="M17 7h1v1h-1v-1z" fill="rgb(122,87,59)"/>
<path d="M18 7h1v1h-1v-1z" fill="rgb(197,155,123)"/>
<path d="M19 7h1v1h-1v-1z" fill="rgb(199,158,124)"/>
<path d="M20 7h1v1h-1v-1z" fill="rgb(201,160,127)"/>
<path d="M21 7h1v1h-1v-1z" fill="rgb(197,155,123)"/>
<path d="M22 7h2v1h-2v-1z" fill="rgb(118,83,55)"/>
<path d="M24 7h1v1h-1v-1z" fill="rgb(201,159,127)"/>
<path d="M25 7h1v1h-1v-1z" fill="rgb(210,168,134)"/>
<path d="M26 7h1v1h-1v-1z" fill="rgb(122,87,59)"/>
<path d="M27 7h1v1h-1v-1z" fill="rgb(4,0,0)"/>
<path d="M28 7h1v1h-1v-1z" fill="rgb(32,0,0)"/>
<path d="M3 8h1v1h-1v-1z" fill="rgb(187,145,114)"/>
<path d="M4 8h1v1h-1v-1z" fill="rgb(144,108,77)"/>
<path d="M5 8h1v1h-1v-1z" fill="rgb(116,81,53)"/>
<path d="M6 8h1v1h-1v-1z" fill="rgb(36,0,0)"/>
<path d="M7 8h1v1h-1v-1z" fill="rgb(124,89,60)"/>
<path d="M10 8h2v1h-2v-1z" fill="rgb(116,81,53)"/>
<path d="M12 8h1v1h-1v-1z" fill="rgb(112,78,50)"/>
<path d="M13 8h1v1h-1v-1z" fill="rgb(127,92,62)"/>
<path d="M14 8h1v1h-1v-1z" fill="rgb(187,145,114)"/>
<path d="M15 8h1v1h-1v-1z" fill="rgb(127,92,62)"/>
<path d="M16 8h1v1h-1v-1z" fill="rgb(201,160,127)"/>
<path d="M17 8h1v1h-1v-1z" fill="rgb(196,154,123)"/>
<path d="M18 8h1v1h-1v-1z" fill="rgb(200,159,126)"/>
<path d="M19 8h1v1h-1v-1z" fill="rgb(118,83,55)"/>
<path d="M20 8h1v2h-1v-2z" fill="rgb(116,81,53)"/>
<path d="M21 8h1v1h-1v-1z" fill="rgb(120,85,57)"/>
<path d="M22 8h1v1h-1v-1z" fill="rgb(116,81,53)"/>
<path d="M23 8h1v1h-1v-1z" fill="rgb(112,78,50)"/>
<path d="M24 8h1v1h-1v-1z" fill="rgb(122,87,59)"/>
<path d="M25 8h2v1h-2v-1z" fill="rgb(205,162,130)"/>
<path d="M27 8h1v1h-1v-1z" fill="rgb(36,0,0)"/>
<path d="M28 8h1v1h-1v-1z" fill="rgb(16,0,0)"/>
<path d="M1 9h1v3h-1v1h-1v-2h1v-2z" fill="rgb(26,0,0)"/>
<path d="M2 9h1v1h-1v-1z" fill="rgb(32,0,0)"/>
<path d="M3 9h1v1h-1v-1z" fill="rgb(200,159,126)"/>
<path d="M4 9h1v1h-1v-1z" fill="rgb(131,95,65)"/>
<path d="M5 9h1v2h-1v-2z" fill="rgb(122,87,59)"/>
<path d="M6 9h1v1h-1v-1z" fill="rgb(40,4,0)"/>
<path d="M7 9h1v1h-1v-1z" fill="rgb(116,81,53)"/>
<path d="M8 9h1v1h-1v-1z" fill="rgb(135,100,69)"/>
<path d="M9 9h1v1h-1v-1z" fill="rgb(197,155,123)"/>
<path d="M10 9h1v1h-1v-1z" fill="rgb(131,95,65)"/>
<path d="M11 9h1v1h-1v-1z" fill="rgb(120,84,55)"/>
<path d="M12 9h1v1h-1v-1z" fill="rgb(129,93,64)"/>
<path d="M13 9h1v1h-1v-1z" fill="rgb(187,145,114)"/>
<path d="M14 9h1v1h-1v-1z" fill="rgb(45,7,4)"/>
<path d="M15 9h1v1h-1v-1z" fill="rgb(112,78,50)"/>
<path d="M16 9h1v1h-1v-1z" fill="rgb(121,86,58)"/>
<path d="M17 9h1v1h-1v-1z" fill="rgb(129,93,64)"/>
<path d="M18 9h1v1h-1v-1z" fill="rgb(195,153,122)"/>
<path d="M19 9h1v1h-1v-1z" fill="rgb(120,85,57)"/>
<path d="M21 9h1v1h-1v-1z" fill="rgb(119,84,56)"/>
<path d="M22 9h2v1h1v2h-1v-1h-1v-1h-1v-1z" fill="rgb(120,85,57)"/>
<path d="M24 9h1v1h-1v-1z" fill="rgb(112,78,50)"/>
<path d="M25 9h1v1h-1v-1z" fill="rgb(123,88,60)"/>
<path d="M26 9h1v1h-1v-1z" fill="rgb(210,168,134)"/>
<path d="M27 9h1v1h-1v-1z" fill="rgb(197,155,123)"/>
<path d="M28 9h1v1h-1v-1z" fill="rgb(26,0,0)"/>
<path d="M29 9h1v1h-1v-1z" fill="rgb(36,6,6)"/>
<path d="M2 10h1v1h-1v-1z" fill="rgb(187,145,114)"/>
<path d="M3 10h1v1h-1v-1z" fill="rgb(135,100,69)"/>
<path d="M4 10h1v1h-1v-1z" fill="rgb(124,89,60)"/>
<path d="M6 10h2v1h-2v-1z" fill="rgb(36,0,0)"/>
<path d="M8 10h1v1h-1v-1z" fill="rgb(118,83,55)"/>
<path d="M9 10h1v1h-1v-1z" fill="rgb(135,100,69)"/>
<path d="M10 10h1v1h-1v-1z" fill="rgb(199,158,124)"/>
<path d="M11 10h1v1h-1v-1z" fill="rgb(201,159,127)"/>
<path d="M12 10h1v1h-1v-1z" fill="rgb(203,161,128)"/>
<path d="M13 10h1v1h-1v-1z" fill="rgb(214,171,136)"/>
<path d="M14 10h1v1h-1v-1z" fill="rgb(116,81,53)"/>
<path d="M15 10h1v1h-1v-1z" fill="rgb(26,0,0)"/>
<path d="M16 10h1v2h-1v-2z" fill="rgb(36,22,17)"/>
<path d="M17 10h1v1h-1v-1z" fill="rgb(121,86,58)"/>
<path d="M18 10h1v1h-1v-1z" fill="rgb(129,93,64)"/>
<path d="M19 10h1v1h-1v-1z" fill="rgb(122,86,57)"/>
<path d="M20 10h1v1h-1v-1z" fill="rgb(119,84,56)"/>
<path d="M21 10h2v1h-2v-1z" fill="rgb(127,92,62)"/>
<path d="M25 10h1v1h-1v-1z" fill="rgb(116,81,53)"/>
<path d="M26 10h1v1h-1v-1z" fill="rgb(125,90,61)"/>
<path d="M27 10h1v1h-1v-1z" fill="rgb(133,97,67)"/>
<path d="M28 10h1v1h-1v-1z" fill="rgb(40,27,20)"/>
<path d="M29 10h1v1h-1v-1z" fill="rgb(16,0,0)"/>
<path d="M30 10h1v1h-1v-1z" fill="rgb(45,7,4)"/>
<path d="M2 11h1v1h-1v-1z" fill="rgb(201,159,127)"/>
<path d="M3 11h1v1h-1v-1z" fill="rgb(133,97,67)"/>
<path d="M4 11h1v2h-1v-2z" fill="rgb(123,88,59)"/>
<path d="M5 11h1v1h-1v-1z" fill="rgb(40,4,0)"/>
<path d="M6 11h1v1h-1v-1z" fill="rgb(26,0,0)"/>
<path d="M7 11h1v1h-1v-1z" fill="rgb(40,4,0)"/>
<path d="M8 11h1v1h-1v-1z" fill="rgb(32,0,0)"/>
<path d="M9 11h1v1h-1v-1z" fill="rgb(36,22,17)"/>
<path d="M10 11h2v1h-2v-1z" fill="rgb(43,30,24)"/>
<path d="M12 11h1v1h-1v-1z" fill="rgb(125,90,61)"/>
<path d="M13 11h1v1h-1v-1z" fill="rgb(207,165,131)"/>
<path d="M14 11h1v1h-1v-1z" fill="rgb(208,163,128)"/>
<path d="M15 11h1v1h-1v-1z" fill="rgb(36,0,0)"/>
<path d="M17 11h1v1h-1v-1z" fill="rgb(127,92,62)"/>
<path d="M18 11h1v1h-1v-1z" fill="rgb(125,90,61)"/>
<path d="M19 11h1v1h-1v-1z" fill="rgb(123,88,59)"/>
<path d="M20 11h1v2h-1v-2z" fill="rgb(43,30,24)"/>
<path d="M21 11h1v1h-1v-1z" fill="rgb(119,84,56)"/>
<path d="M22 11h1v1h-1v-1z" fill="rgb(197,156,124)"/>
<path d="M23 11h1v1h-1v-1z" fill="rgb(131,95,65)"/>
<path d="M25 11h1v1h-1v-1z" fill="rgb(121,86,58)"/>
<path d="M26 11h1v1h-1v-1z" fill="rgb(120,85,57)"/>
<path d="M27 11h1v1h-1v-1z" fill="rgb(120,84,55)"/>
<path d="M28 11h1v1h-1v-1z" fill="rgb(131,95,65)"/>
<path d="M29 11h1v1h-1v-1z" fill="rgb(43,30,24)"/>
<path d="M30 11h1v1h-1v-1z" fill="rgb(16,0,0)"/>
<path d="M31 11h1v1h-1v-1z" fill="rgb(36,0,0)"/>
<path d="M1 12h1v1h-1v-1z" fill="rgb(186,139,104)"/>
<path d="M2 12h1v1h-1v-1z" fill="rgb(135,100,69)"/>
<path d="M3 12h1v1h-1v-1z" fill="rgb(122,87,59)"/>
<path d="M5 12h1v1h-1v-1z" fill="rgb(26,0,0)"/>
<path d="M6 12h1v1h-1v-1z" fill="rgb(48,10,6)"/>
<path d="M7 12h1v1h-1v-1z" fill="rgb(185,128,121)"/>
<path d="M8 12h1v1h-1v-1z" fill="rgb(48,10,6)"/>
<path d="M9 12h2v1h-2v-1z" fill="rgb(26,0,0)"/>
<path d="M11 12h1v1h-1v-1z" fill="rgb(31,19,14)"/>
<path d="M12 12h1v1h-1v-1z" fill="rgb(36,22,17)"/>
<path d="M13 12h1v1h-1v-1z" fill="rgb(50,36,29)"/>
<path d="M14 12h1v1h-1v-1z" fill="rgb(128,94,65)"/>
<path d="M15 12h1v1h-1v-1z" fill="rgb(47,33,26)"/>
<path d="M16 12h1v1h-1v-1z" fill="rgb(40,4,0)"/>
<path d="M17 12h1v1h-1v-1z" fill="rgb(40,27,20)"/>
<path d="M18 12h1v1h-1v-1z" fill="rgb(50,36,29)"/>
<path d="M19 12h1v1h-1v-1z" fill="rgb(125,90,61)"/>
<path d="M21 12h1v1h-1v-1z" fill="rgb(32,0,0)"/>
<path d="M22 12h1v1h-1v-1z" fill="rgb(47,33,26)"/>
<path d="M23 12h1v1h-1v-1z" fill="rgb(196,154,123)"/>
<path d="M24 12h1v1h-1v-1z" fill="rgb(133,97,67)"/>
<path d="M25 12h1v1h-1v-1z" fill="rgb(123,88,59)"/>
<path d="M26 12h1v1h-1v-1z" fill="rgb(118,83,55)"/>
<path d="M27 12h1v1h-1v-1z" fill="rgb(48,10,6)"/>
<path d="M28 12h1v1h-1v-1z" fill="rgb(122,84,56)"/>
<path d="M29 12h1v1h-1v-1z" fill="rgb(51,41,32)"/>
<path d="M30 12h1v1h-1v-1z" fill="rgb(30,15,9)"/>
<path d="M31 12h1v1h-1v-1z" fill="rgb(16,0,0)"/>
<path d="M0 13h1v1h-1v-1z" fill="rgb(32,0,0)"/>
<path d="M1 13h1v1h-1v-1z" fill="rgb(208,163,128)"/>
<path d="M2 13h1v1h-1v-1z" fill="rgb(128,94,65)"/>
<path d="M3 13h1v6h-1v-6z" fill="rgb(40,27,20)"/>
<path d="M4 13h2v1h-2v-1z" fill="rgb(32,0,0)"/>
<path d="M6 13h1v1h-1v-1z" fill="rgb(188,131,123)"/>
<path d="M7 13h1v1h-1v-1z" fill="rgb(213,154,145)"/>
<path d="M8 13h1v1h-1v-1z" fill="rgb(183,126,118)"/>
<path d="M9 13h1v1h-1v-1z" fill="rgb(40,4,0)"/>
<path d="M10 13h1v1h-1v-1z" fill="rgb(32,0,0)"/>
<path d="M11 13h1v1h-1v-1z" fill="rgb(40,4,0)"/>
<path d="M12 13h1v1h-1v-1z" fill="rgb(31,19,14)"/>
<path d="M13 13h1v1h-1v-1z" fill="rgb(134,100,72)"/>
<path d="M14 13h1v1h-1v-1z" fill="rgb(140,105,76)"/>
<path d="M15 13h1v1h-1v-1z" fill="rgb(138,103,74)"/>
<path d="M16 13h1v2h-1v-2z" fill="rgb(40,27,20)"/>
<path d="M17 13h1v1h-1v-1z" fill="rgb(32,0,0)"/>
<path d="M18 13h1v1h-1v-1z" fill="rgb(40,27,20)"/>
<path d="M19 13h1v1h-1v-1z" fill="rgb(140,105,76)"/>
<path d="M20 13h1v1h-1v-1z" fill="rgb(128,94,65)"/>
<path d="M21 13h1v2h-1v-2z" fill="rgb(47,33,26)"/>
<path d="M22 13h1v1h-1v-1z" fill="rgb(36,22,17)"/>
<path d="M23 13h1v1h-1v-1z" fill="rgb(50,36,29)"/>
<path d="M24 13h1v1h-1v-1z" fill="rgb(197,155,123)"/>
<path d="M25 13h1v1h-1v-1z" fill="rgb(131,95,65)"/>
<path d="M26 13h1v1h-1v-1z" fill="rgb(129,93,64)"/>
<path d="M27 13h1v1h-1v-1z" fill="rgb(116,81,53)"/>
<path d="M28 13h1v1h-1v-1z" fill="rgb(48,10,6)"/>
<path d="M29 13h1v1h-1v-1z" fill="rgb(40,27,20)"/>
<path d="M30 13h1v1h-1v-1z" fill="rgb(26,0,0)"/>
<path d="M31 13h1v1h-1v-1z" fill="rgb(40,4,0)"/>
<path d="M0 14h1v1h-1v-1z" fill="rgb(26,0,0)"/>
<path d="M1 14h1v1h-1v-1z" fill="rgb(192,149,117)"/>
<path d="M2 14h1v1h-1v-1z" fill="rgb(133,97,67)"/>
<path d="M4 14h1v1h-1v-1z" fill="rgb(26,0,0)"/>
<path d="M5 14h1v1h-1v-1z" fill="rgb(40,4,0)"/>
<path d="M6 14h1v1h-1v-1z" fill="rgb(192,135,128)"/>
<path d="M7 14h1v1h-1v-1z" fill="rgb(198,155,149)"/>
<path d="M8 14h1v1h-1v-1z" fill="rgb(195,138,130)"/>
<path d="M9 14h1v1h-1v-1z" fill="rgb(186,128,120)"/>
<path d="M10 14h1v1h-1v-1z" fill="rgb(195,138,130)"/>
<path d="M11 14h1v1h-1v-1z" fill="rgb(186,128,120)"/>
<path d="M12 14h1v1h-1v-1z" fill="rgb(40,4,0)"/>
<path d="M13 14h2v1h-2v-1z" fill="rgb(32,0,0)"/>
<path d="M15 14h1v1h-1v-1z" fill="rgb(36,0,0)"/>
<path d="M17 14h1v1h-1v-1z" fill="rgb(40,4,0)"/>
<path d="M18 14h1v1h-1v-1z" fill="rgb(26,0,0)"/>
<path d="M19 14h1v2h-1v-2z" fill="rgb(36,0,0)"/>
<path d="M20 14h1v1h-1v-1z" fill="rgb(138,103,74)"/>
<path d="M22 14h1v1h-1v-1z" fill="rgb(40,4,0)"/>
<path d="M23 14h1v1h-1v-1z" fill="rgb(36,22,17)"/>
<path d="M24 14h1v1h-1v-1z" fill="rgb(50,36,29)"/>
<path d="M25 14h1v1h-1v-1z" fill="rgb(138,103,74)"/>
<path d="M26 14h1v1h-1v-1z" fill="rgb(127,92,62)"/>
<path d="M27 14h1v4h-2v-1h-1v-2h2v-1z" fill="rgb(140,105,76)"/>
<path d="M28 14h1v1h-1v-1z" fill="rgb(40,27,20)"/>
<path d="M29 14h2v1h-2v-1z" fill="rgb(32,0,0)"/>
<path d="M31 14h1v23h-1v-1h-11v-2h1v-1h1v-1h1v-1h1v-1h1v-1h1v-2h1v-5h1v-2h1v-2
	h1v-2h1v-2z" fill="rgb(255,255,255)"/>
<path d="M0 15h1v1h-1v-1z" fill="rgb(32,0,0)"/>
<path d="M1 15h1v1h-1v-1z" fill="rgb(26,0,0)"/>
<path d="M2 15h1v1h-1v-1z" fill="rgb(43,30,24)"/>
<path d="M4 15h1v4h-1v-4z" fill="rgb(40,4,0)"/>
<path d="M5 15h1v1h-1v-1z" fill="rgb(188,131,123)"/>
<path d="M6 15h1v1h-1v-1z" fill="rgb(209,164,158)"/>
<path d="M7 15h1v1h-1v-1z" fill="rgb(199,157,152)"/>
<path d="M8 15h1v1h-1v-1z" fill="rgb(198,155,149)"/>
<path d="M9 15h1v1h-1v-1z" fill="rgb(202,159,153)"/>
<path d="M10 15h1v1h-1v-1z" fill="rgb(197,153,147)"/>
<path d="M11 15h1v1h-1v-1z" fill="rgb(192,135,128)"/>
<path d="M12 15h1v1h-1v-1z" fill="rgb(181,125,117)"/>
<path d="M13 15h1v1h-1v-1z" fill="rgb(185,127,121)"/>
<path d="M14 15h2v1h-2v-1z" fill="rgb(186,128,120)"/>
<path d="M16 15h1v1h-1v-1z" fill="rgb(203,145,137)"/>
<path d="M17 15h1v1h-1v-1z" fill="rgb(195,138,130)"/>
<path d="M18 15h1v1h-1v-1z" fill="rgb(48,10,6)"/>
<path d="M20 15h1v1h-1v-1z" fill="rgb(48,10,6)"/>
<path d="M21 15h1v1h-1v-1z" fill="rgb(32,0,0)"/>
<path d="M22 15h1v1h1v2h-1v-1h-1v-2z" fill="rgb(36,0,0)"/>
<path d="M23 15h1v1h-1v-1z" fill="rgb(40,4,0)"/>
<path d="M24 15h1v1h-1v-1z" fill="rgb(43,30,24)"/>
<path d="M28 15h1v1h-1v-1z" fill="rgb(47,33,26)"/>
<path d="M29 15h1v1h-1v-1z" fill="rgb(26,0,0)"/>
<path d="M30 15h1v1h-1v-1z" fill="rgb(40,4,0)"/>
<path d="M0 16h1v3h1v2h1v1h1v5h1v3h1v2h1v1h1v1h1v1h2v1h-7v1h-1v1h-2v1h-1v-23z" fill="rgb(255,255,255)"/>
<path d="M1 16h1v1h-1v-1z" fill="rgb(32,0,0)"/>
<path d="M2 16h1v1h-1v-1z" fill="rgb(35,20,13)"/>
<path d="M5 16h1v1h-1v-1z" fill="rgb(214,168,162)"/>
<path d="M6 16h1v1h-1v-1z" fill="rgb(202,159,153)"/>
<path d="M7 16h2v1h-2v-1z" fill="rgb(197,153,147)"/>
<path d="M9 16h1v1h-1v-1z" fill="rgb(188,145,141)"/>
<path d="M10 16h1v1h-1v-1z" fill="rgb(195,151,146)"/>
<path d="M11 16h1v1h-1v-1z" fill="rgb(188,145,141)"/>
<path d="M12 16h1v1h-1v-1z" fill="rgb(194,150,145)"/>
<path d="M13 16h1v1h-1v-1z" fill="rgb(195,151,146)"/>
<path d="M14 16h1v1h-1v-1z" fill="rgb(197,153,147)"/>
<path d="M15 16h1v1h-1v-1z" fill="rgb(202,159,153)"/>
<path d="M16 16h1v1h-1v-1z" fill="rgb(197,153,147)"/>
<path d="M17 16h1v1h-1v-1z" fill="rgb(209,164,158)"/>
<path d="M18 16h1v1h-1v-1z" fill="rgb(201,157,152)"/>
<path d="M19 16h1v1h-1v-1z" fill="rgb(209,164,158)"/>
<path d="M20 16h1v1h-1v-1z" fill="rgb(194,150,145)"/>
<path d="M21 16h1v1h-1v-1z" fill="rgb(48,10,6)"/>
<path d="M24 16h1v1h-1v-1z" fill="rgb(47,33,26)"/>
<path d="M26 16h1v1h-1v-1z" fill="rgb(144,108,77)"/>
<path d="M28 16h1v1h-1v-1z" fill="rgb(35,20,13)"/>
<path d="M29 16h1v1h-1v-1z" fill="rgb(32,0,0)"/>
<path d="M1 17h1v1h-1v-1z" fill="rgb(26,0,0)"/>
<path d="M2 17h1v1h-1v-1z" fill="rgb(36,22,17)"/>
<path d="M5 17h1v1h-1v-1z" fill="rgb(186,141,136)"/>
<path d="M6 17h1v1h-1v-1z" fill="rgb(38,11,0)"/>
<path d="M7 17h1v1h-1v-1z" fill="rgb(26,0,0)"/>
<path d="M8 17h1v1h-1v-1z" fill="rgb(16,0,0)"/>
<path d="M9 17h1v1h-1v-1z" fill="rgb(26,0,0)"/>
<path d="M10 17h1v1h-1v-1z" fill="rgb(251,216,178)"/>
<path d="M11 17h1v1h-1v-1z" fill="rgb(255,221,184)"/>
<path d="M12 17h1v1h-1v-1z" fill="rgb(248,212,176)"/>
<path d="M13 17h1v3h-2v-2h1v-1z" fill="rgb(247,212,175)"/>
<path d="M14 17h1v1h-1v-1z" fill="rgb(255,221,184)"/>
<path d="M15 17h1v1h-1v-1z" fill="rgb(253,217,178)"/>
<path d="M16 17h2v2h-1v-1h-1v-1z" fill="rgb(26,0,0)"/>
<path d="M18 17h1v1h-1v-1z" fill="rgb(34,6,0)"/>
<path d="M19 17h1v1h-1v-1z" fill="rgb(26,0,0)"/>
<path d="M20 17h1v1h-1v-1z" fill="rgb(42,15,0)"/>
<path d="M21 17h1v1h-1v-1z" fill="rgb(187,142,137)"/>
<path d="M22 17h1v1h-1v-1z" fill="rgb(209,164,158)"/>
<path d="M24 17h1v1h-1v-1z" fill="rgb(32,0,0)"/>
<path d="M25 17h1v1h-1v-1z" fill="rgb(47,33,26)"/>
<path d="M28 17h1v1h-1v-1z" fill="rgb(26,0,0)"/>
<path d="M29 17h1v1h-1v-1z" fill="rgb(40,4,0)"/>
<path d="M1 18h1v1h-1v-1z" fill="rgb(40,4,0)"/>
<path d="M2 18h1v1h-1v-1z" fill="rgb(28,12,6)"/>
<path d="M5 18h1v1h-1v-1z" fill="rgb(48,19,3)"/>
<path d="M6 18h1v1h-1v-1z" fill="rgb(34,6,0)"/>
<path d="M7 18h1v1h-1v-1z" fill="rgb(38,11,0)"/>
<path d="M8 18h1v1h-1v-1z" fill="rgb(26,0,0)"/>
<path d="M9 18h1v1h-1v-1z" fill="rgb(34,6,0)"/>
<path d="M10 18h1v1h-1v-1z" fill="rgb(251,215,178)"/>
<path d="M11 18h1v1h-1v-1z" fill="rgb(255,224,185)"/>
<path d="M14 18h1v1h-1v-1z" fill="rgb(255,224,185)"/>
<path d="M15 18h1v1h-1v-1z" fill="rgb(251,215,178)"/>
<path d="M16 18h1v1h-1v-1z" fill="rgb(34,6,0)"/>
<path d="M18 18h2v1h-2v-1z" fill="rgb(38,11,0)"/>
<path d="M20 18h1v1h-1v-1z" fill="rgb(26,0,0)"/>
<path d="M21 18h1v1h-1v-1z" fill="rgb(62,34,15)"/>
<path d="M22 18h1v1h-1v-1z" fill="rgb(255,219,183)"/>
<path d="M23 18h1v1h-1v-1z" fill="rgb(45,7,4)"/>
<path d="M24 18h1v1h-1v-1z" fill="rgb(26,0,0)"/>
<path d="M25 18h1v1h-1v-1z" fill="rgb(32,0,0)"/>
<path d="M26 18h1v1h-1v-1z" fill="rgb(47,33,26)"/>
<path d="M27 18h1v1h-1v-1z" fill="rgb(36,22,17)"/>
<path d="M28 18h1v1h-1v-1z" fill="rgb(32,0,0)"/>
<path d="M2 19h1v1h-1v-1z" fill="rgb(26,0,0)"/>
<path d="M3 19h1v1h-1v-1z" fill="rgb(35,20,13)"/>
<path d="M4 19h1v1h-1v-1z" fill="rgb(255,229,190)"/>
<path d="M5 19h1v1h-1v-1z" fill="rgb(255,218,180)"/>
<path d="M6 19h1v1h-1v-1z" fill="rgb(255,224,185)"/>
<path d="M7 19h1v1h-1v-1z" fill="rgb(255,226,188)"/>
<path d="M8 19h1v1h-1v-1z" fill="rgb(199,141,133)"/>
<path d="M9 19h1v1h-1v-1z" fill="rgb(181,122,117)"/>
<path d="M10 19h1v1h-1v-1z" fill="rgb(199,141,133)"/>
<path d="M11 19h1v1h-1v-1z" fill="rgb(248,212,176)"/>
<path d="M14 19h1v1h-1v-1z" fill="rgb(248,212,176)"/>
<path d="M15 19h1v1h-1v-1z" fill="rgb(199,141,133)"/>
<path d="M16 19h1v1h-1v-1z" fill="rgb(181,122,117)"/>
<path d="M17 19h1v1h-1v-1z" fill="rgb(199,141,133)"/>
<path d="M18 19h2v1h-2v-1z" fill="rgb(255,226,188)"/>
<path d="M20 19h1v1h-1v-1z" fill="rgb(255,218,180)"/>
<path d="M21 19h1v1h-1v-1z" fill="rgb(242,205,168)"/>
<path d="M22 19h1v1h-1v-1z" fill="rgb(255,236,196)"/>
<path d="M23 19h1v1h-1v-1z" fill="rgb(188,145,141)"/>
<path d="M24 19h3v1h-3v-1z" fill="rgb(36,0,0)"/>
<path d="M27 19h1v3h-2v-2h1v-1z" fill="rgb(26,0,0)"/>
<path d="M28 19h1v1h-1v-1z" fill="rgb(40,4,0)"/>
<path d="M2 20h1v1h-1v-1z" fill="rgb(34,4,5)"/>
<path d="M3 20h1v1h-1v-1z" fill="rgb(26,0,0)"/>
<path d="M4 20h1v1h-1v-1z" fill="rgb(255,221,184)"/>
<path d="M5 20h1v1h-1v-1z" fill="rgb(48,19,3)"/>
<path d="M6 20h1v1h-1v-1z" fill="rgb(34,6,0)"/>
<path d="M7 20h1v1h-1v-1z" fill="rgb(38,11,0)"/>
<path d="M8 20h1v1h-1v-1z" fill="rgb(26,0,0)"/>
<path d="M9 20h1v1h-1v-1z" fill="rgb(34,6,0)"/>
<path d="M10 20h1v1h-1v-1z" fill="rgb(172,114,108)"/>
<path d="M11 20h1v1h-1v-1z" fill="rgb(255,221,184)"/>
<path d="M12 20h2v1h-2v-1z" fill="rgb(249,213,176)"/>
<path d="M14 20h1v1h-1v-1z" fill="rgb(255,221,184)"/>
<path d="M15 20h1v1h-1v-1z" fill="rgb(172,114,108)"/>
<path d="M16 20h3v1h-3v-1z" fill="rgb(34,6,0)"/>
<path d="M19 20h1v1h-1v-1z" fill="rgb(42,15,0)"/>
<path d="M20 20h1v1h-1v-1z" fill="rgb(26,0,0)"/>
<path d="M21 20h1v1h-1v-1z" fill="rgb(34,6,0)"/>
<path d="M22 20h1v1h-1v-1z" fill="rgb(249,213,175)"/>
<path d="M23 20h1v1h-1v-1z" fill="rgb(255,229,190)"/>
<path d="M24 20h1v1h-1v-1z" fill="rgb(198,155,149)"/>
<path d="M25 20h1v1h-1v-1z" fill="rgb(195,151,146)"/>
<path d="M3 21h1v1h-1v-1z" fill="rgb(36,6,6)"/>
<path d="M4 21h1v1h-1v-1z" fill="rgb(246,206,168)"/>
<path d="M5 21h1v1h-1v-1z" fill="rgb(158,155,152)"/>
<path d="M6 21h1v1h-1v-1z" fill="rgb(139,136,134)"/>
<path d="M7 21h1v1h-1v-1z" fill="rgb(26,0,0)"/>
<path d="M8 21h1v1h-1v-1z" fill="rgb(38,11,0)"/>
<path d="M9 21h1v1h-1v-1z" fill="rgb(16,0,0)"/>
<path d="M10 21h1v1h-1v-1z" fill="rgb(32,0,0)"/>
<path d="M11 21h1v1h-1v-1z" fill="rgb(245,209,174)"/>
<path d="M12 21h2v1h-2v-1z" fill="rgb(254,217,181)"/>
<path d="M14 21h1v1h-1v-1z" fill="rgb(245,209,174)"/>
<path d="M15 21h1v1h-1v-1z" fill="rgb(32,0,0)"/>
<path d="M16 21h2v1h-2v-1z" fill="rgb(16,0,0)"/>
<path d="M18 21h1v1h-1v-1z" fill="rgb(48,19,3)"/>
<path d="M19 21h1v1h-1v-1z" fill="rgb(139,136,134)"/>
<path d="M20 21h1v1h-1v-1z" fill="rgb(147,144,142)"/>
<path d="M21 21h1v1h-1v-1z" fill="rgb(139,136,134)"/>
<path d="M22 21h1v1h-1v-1z" fill="rgb(251,215,177)"/>
<path d="M23 21h1v1h-1v-1z" fill="rgb(255,218,180)"/>
<path d="M24 21h1v1h-1v-1z" fill="rgb(201,157,152)"/>
<path d="M25 21h1v1h-1v-1z" fill="rgb(197,153,147)"/>
<path d="M4 22h1v1h-1v-1z" fill="rgb(255,221,184)"/>
<path d="M5 22h1v1h1v2h-1v-1h-1v-2z" fill="rgb(255,255,255)"/>
<path d="M6 22h1v1h-1v-1z" fill="rgb(158,155,152)"/>
<path d="M7 22h1v1h-1v-1z" fill="rgb(60,36,19)"/>
<path d="M8 22h1v1h-1v-1z" fill="rgb(252,252,252)"/>
<path d="M9 22h1v1h-1v-1z" fill="rgb(161,162,162)"/>
<path d="M10 22h1v1h-1v-1z" fill="rgb(139,136,134)"/>
<path d="M11 22h4v1h-4v-1z" fill="rgb(248,212,176)"/>
<path d="M15 22h2v1h-2v-1z" fill="rgb(147,144,142)"/>
<path d="M17 22h1v1h-1v-1z" fill="rgb(67,40,22)"/>
<path d="M18 22h1v1h-1v-1z" fill="rgb(249,248,248)"/>
<path d="M19 22h1v1h-1v-1z" fill="rgb(179,177,174)"/>
<path d="M20 22h2v1h-1v1h-1v1h-1v-2h1v-1z" fill="rgb(255,255,255)"/>
<path d="M22 22h1v1h-1v-1z" fill="rgb(251,216,178)"/>
<path d="M23 22h1v1h-1v-1z" fill="rgb(248,210,173)"/>
<path d="M24 22h1v5h-1v-5z" fill="rgb(188,145,141)"/>
<path d="M25 22h1v1h-1v-1z" fill="rgb(193,147,142)"/>
<path d="M26 22h1v1h-1v-1z" fill="rgb(181,125,117)"/>
<path d="M4 23h1v1h-1v-1z" fill="rgb(248,210,173)"/>
<path d="M7 23h1v1h-1v-1z" fill="rgb(48,19,3)"/>
<path d="M8 23h1v1h-1v-1z" fill="rgb(67,40,22)"/>
<path d="M9 23h2v1h-1v1h-1v-2z" fill="rgb(255,255,255)"/>
<path d="M11 23h1v1h-1v-1z" fill="rgb(249,213,176)"/>
<path d="M12 23h2v1h-2v-1z" fill="rgb(244,207,171)"/>
<path d="M14 23h1v1h-1v-1z" fill="rgb(249,213,176)"/>
<path d="M15 23h2v2h-1v-1h-1v-1z" fill="rgb(255,255,255)"/>
<path d="M17 23h1v1h-1v-1z" fill="rgb(48,19,3)"/>
<path d="M18 23h1v1h-1v-1z" fill="rgb(67,40,22)"/>
<path d="M21 23h1v1h-1v-1z" fill="rgb(249,214,179)"/>
<path d="M22 23h1v1h-1v-1z" fill="rgb(247,209,170)"/>
<path d="M23 23h1v1h-1v-1z" fill="rgb(247,211,175)"/>
<path d="M25 23h1v2h-1v-2z" fill="rgb(187,142,137)"/>
<path d="M26 23h1v1h-1v-1z" fill="rgb(183,126,118)"/>
<path d="M4 24h1v1h-1v-1z" fill="rgb(246,206,168)"/>
<path d="M5 24h1v1h-1v-1z" fill="rgb(255,221,184)"/>
<path d="M7 24h1v1h-1v-1z" fill="rgb(108,67,33)"/>
<path d="M8 24h1v1h-1v-1z" fill="rgb(104,62,28)"/>
<path d="M10 24h1v1h-1v-1z" fill="rgb(255,226,188)"/>
<path d="M11 24h1v1h-1v-1z" fill="rgb(245,206,168)"/>
<path d="M12 24h2v1h-2v-1z" fill="rgb(244,208,173)"/>
<path d="M14 24h1v1h-1v-1z" fill="rgb(245,206,168)"/>
<path d="M15 24h1v1h-1v-1z" fill="rgb(255,226,188)"/>
<path d="M17 24h1v1h-1v-1z" fill="rgb(108,67,33)"/>
<path d="M18 24h1v1h-1v-1z" fill="rgb(104,62,28)"/>
<path d="M20 24h1v1h-1v-1z" fill="rgb(255,221,184)"/>
<path d="M21 24h1v1h-1v-1z" fill="rgb(243,204,164)"/>
<path d="M22 24h1v1h-1v-1z" fill="rgb(247,211,175)"/>
<path d="M23 24h1v2h-1v-2z" fill="rgb(248,212,176)"/>
<path d="M26 24h1v1h-1v-1z" fill="rgb(181,125,117)"/>
<path d="M4 25h1v1h-1v-1z" fill="rgb(243,204,164)"/>
<path d="M5 25h1v1h-1v-1z" fill="rgb(251,207,167)"/>
<path d="M6 25h1v1h-1v-1z" fill="rgb(190,150,146)"/>
<path d="M7 25h2v1h-2v-1z" fill="rgb(78,99,119)"/>
<path d="M9 25h1v1h-1v-1z" fill="rgb(190,150,146)"/>
<path d="M10 25h1v1h-1v-1z" fill="rgb(246,206,168)"/>
<path d="M11 25h1v1h-1v-1z" fill="rgb(246,210,174)"/>
<path d="M12 25h2v1h-2v-1z" fill="rgb(244,209,174)"/>
<path d="M14 25h1v1h-1v-1z" fill="rgb(246,210,174)"/>
<path d="M15 25h1v1h-1v-1z" fill="rgb(246,206,168)"/>
<path d="M16 25h1v1h-1v-1z" fill="rgb(190,150,146)"/>
<path d="M17 25h2v1h-2v-1z" fill="rgb(78,99,119)"/>
<path d="M19 25h1v1h-1v-1z" fill="rgb(190,150,146)"/>
<path d="M20 25h1v1h-1v-1z" fill="rgb(246,206,168)"/>
<path d="M21 25h1v1h-1v-1z" fill="rgb(248,210,173)"/>
<path d="M22 25h1v1h-1v-1z" fill="rgb(247,212,175)"/>
<path d="M25 25h1v1h-1v-1z" fill="rgb(186,141,136)"/>
<path d="M26 25h1v1h-1v-1z" fill="rgb(180,122,114)"/>
<path d="M4 26h1v1h-1v-1z" fill="rgb(244,208,173)"/>
<path d="M5 26h1v1h-1v-1z" fill="rgb(252,213,172)"/>
<path d="M6 26h1v1h-1v-1z" fill="rgb(245,205,169)"/>
<path d="M7 26h2v1h-2v-1z" fill="rgb(185,143,141)"/>
<path d="M9 26h1v1h-1v-1z" fill="rgb(245,205,170)"/>
<path d="M10 26h1v1h-1v-1z" fill="rgb(249,213,175)"/>
<path d="M11 26h1v1h-1v-1z" fill="rgb(245,209,174)"/>
<path d="M12 26h2v1h-2v-1z" fill="rgb(247,211,175)"/>
<path d="M14 26h1v1h-1v-1z" fill="rgb(245,209,174)"/>
<path d="M15 26h1v1h-1v-1z" fill="rgb(249,213,175)"/>
<path d="M16 26h1v1h-1v-1z" fill="rgb(245,205,170)"/>
<path d="M17 26h2v1h-2v-1z" fill="rgb(185,143,141)"/>
<path d="M19 26h1v1h-1v-1z" fill="rgb(245,205,170)"/>
<path d="M20 26h1v1h-1v-1z" fill="rgb(249,213,175)"/>
<path d="M21 26h1v2h-1v1h-1v1h-1v-2h1v-1h1v-1z" fill="rgb(245,209,174)"/>
<path d="M22 26h1v1h-1v-1z" fill="rgb(248,212,176)"/>
<path d="M23 26h1v1h-1v-1z" fill="rgb(251,215,177)"/>
<path d="M25 26h1v1h-1v-1z" fill="rgb(178,120,114)"/>
<path d="M26 26h1v1h-1v-1z" fill="rgb(194,143,135)"/>
<path d="M5 27h1v1h-1v-1z" fill="rgb(249,213,176)"/>
<path d="M6 27h1v1h-1v-1z" fill="rgb(249,213,175)"/>
<path d="M7 27h2v1h-2v-1z" fill="rgb(250,211,175)"/>
<path d="M9 27h1v1h-1v-1z" fill="rgb(249,213,176)"/>
<path d="M10 27h2v1h-2v-1z" fill="rgb(246,210,174)"/>
<path d="M12 27h2v1h-2v-1z" fill="rgb(242,206,172)"/>
<path d="M14 27h2v1h-2v-1z" fill="rgb(246,210,174)"/>
<path d="M16 27h1v1h-1v-1z" fill="rgb(249,213,176)"/>
<path d="M17 27h2v1h-2v-1z" fill="rgb(250,211,175)"/>
<path d="M19 27h1v1h-1v-1z" fill="rgb(249,213,176)"/>
<path d="M22 27h1v1h-1v-1z" fill="rgb(253,217,178)"/>
<path d="M23 27h1v1h-1v-1z" fill="rgb(248,212,176)"/>
<path d="M24 27h1v1h-1v-1z" fill="rgb(185,139,133)"/>
<path d="M25 27h1v2h-1v-2z" fill="rgb(180,122,114)"/>
<path d="M5 28h1v1h-1v-1z" fill="rgb(247,209,170)"/>
<path d="M6 28h1v2h1v1h-2v-3z" fill="rgb(245,206,168)"/>
<path d="M7 28h1v1h-1v-1z" fill="rgb(247,212,175)"/>
<path d="M8 28h1v1h-1v-1z" fill="rgb(247,211,175)"/>
<path d="M9 28h1v1h-1v-1z" fill="rgb(245,209,174)"/>
<path d="M10 28h1v1h-1v-1z" fill="rgb(247,211,175)"/>
<path d="M11 28h1v1h-1v-1z" fill="rgb(243,207,173)"/>
<path d="M12 28h2v1h-2v-1z" fill="rgb(183,139,137)"/>
<path d="M14 28h1v1h-1v-1z" fill="rgb(243,207,173)"/>
<path d="M15 28h1v1h-1v-1z" fill="rgb(247,211,175)"/>
<path d="M16 28h1v1h-1v-1z" fill="rgb(245,209,174)"/>
<path d="M17 28h2v1h-2v-1z" fill="rgb(247,211,175)"/>
<path d="M21 28h1v1h-1v-1z" fill="rgb(251,216,178)"/>
<path d="M22 28h1v1h-1v-1z" fill="rgb(246,210,174)"/>
<path d="M23 28h1v1h-1v-1z" fill="rgb(188,145,141)"/>
<path d="M24 28h1v1h-1v-1z" fill="rgb(170,107,101)"/>
<path d="M5 29h1v1h-1v-1z" fill="rgb(244,208,173)"/>
<path d="M7 29h1v1h-1v-1z" fill="rgb(244,208,173)"/>
<path d="M8 29h1v1h1v1h-2v-2z" fill="rgb(245,209,174)"/>
<path d="M9 29h1v1h-1v-1z" fill="rgb(244,208,173)"/>
<path d="M10 29h1v1h-1v-1z" fill="rgb(246,210,174)"/>
<path d="M11 29h1v1h-1v-1z" fill="rgb(252,217,182)"/>
<path d="M12 29h2v1h-2v-1z" fill="rgb(248,214,181)"/>
<path d="M14 29h1v1h-1v-1z" fill="rgb(252,217,182)"/>
<path d="M15 29h1v1h-1v-1z" fill="rgb(246,210,174)"/>
<path d="M16 29h3v2h-2v-1h-1v-1z" fill="rgb(244,208,173)"/>
<path d="M20 29h1v1h-1v-1z" fill="rgb(249,213,176)"/>
<path d="M21 29h1v1h-1v-1z" fill="rgb(245,209,174)"/>
<path d="M22 29h1v1h-1v-1z" fill="rgb(188,145,141)"/>
<path d="M23 29h1v1h-1v-1z" fill="rgb(175,125,121)"/>
<path d="M24 29h1v1h-1v-1z" fill="rgb(183,126,118)"/>
<path d="M10 30h1v1h-1v-1z" fill="rgb(248,213,179)"/>
<path d="M11 30h1v1h-1v-1z" fill="rgb(242,205,168)"/>
<path d="M12 30h1v1h-1v-1z" fill="rgb(249,213,176)"/>
<path d="M13 30h1v1h-1v-1z" fill="rgb(249,213,175)"/>
<path d="M14 30h1v1h-1v-1z" fill="rgb(242,205,168)"/>
<path d="M15 30h1v1h-1v-1z" fill="rgb(253,218,186)"/>
<path d="M16 30h1v1h-1v-1z" fill="rgb(247,211,175)"/>
<path d="M19 30h1v1h-1v-1z" fill="rgb(248,212,176)"/>
<path d="M20 30h1v1h-1v-1z" fill="rgb(249,214,177)"/>
<path d="M21 30h1v1h-1v-1z" fill="rgb(188,145,141)"/>
<path d="M22 30h1v1h-1v-1z" fill="rgb(175,125,121)"/>
<path d="M23 30h1v1h-1v-1z" fill="rgb(182,127,120)"/>
<path d="M6 31h1v1h-1v-1z" fill="rgb(244,207,171)"/>
<path d="M7 31h1v1h-1v-1z" fill="rgb(243,204,164)"/>
<path d="M8 31h1v1h-1v-1z" fill="rgb(244,208,173)"/>
<path d="M9 31h1v1h-1v-1z" fill="rgb(248,214,181)"/>
<path d="M10 31h1v1h-1v-1z" fill="rgb(242,205,168)"/>
<path d="M11 31h1v1h-1v-1z" fill="rgb(130,65,3)"/>
<path d="M12 31h2v1h-2v-1z" fill="rgb(116,47,0)"/>
<path d="M14 31h1v1h-1v-1z" fill="rgb(130,65,3)"/>
<path d="M15 31h1v1h-1v-1z" fill="rgb(233,194,156)"/>
<path d="M16 31h1v1h-1v-1z" fill="rgb(253,218,186)"/>
<path d="M17 31h2v1h-2v-1z" fill="rgb(246,210,174)"/>
<path d="M19 31h1v1h-1v-1z" fill="rgb(252,219,181)"/>
<path d="M20 31h1v1h-1v-1z" fill="rgb(245,209,174)"/>
<path d="M21 31h1v1h-1v-1z" fill="rgb(178,128,123)"/>
<path d="M22 31h1v1h-1v-1z" fill="rgb(181,125,117)"/>
<path d="M7 32h1v1h-1v-1z" fill="rgb(244,208,173)"/>
<path d="M8 32h1v1h-1v-1z" fill="rgb(243,204,164)"/>
<path d="M9 32h1v1h-1v-1z" fill="rgb(245,209,174)"/>
<path d="M10 32h1v1h-1v-1z" fill="rgb(251,216,181)"/>
<path d="M11 32h1v1h-1v-1z" fill="rgb(238,201,164)"/>
<path d="M12 32h1v1h-1v-1z" fill="rgb(183,139,137)"/>
<path d="M13 32h1v1h-1v-1z" fill="rgb(188,145,141)"/>
<path d="M14 32h1v1h-1v-1z" fill="rgb(233,194,156)"/>
<path d="M15 32h1v1h-1v-1z" fill="rgb(130,65,3)"/>
<path d="M16 32h1v1h-1v-1z" fill="rgb(238,201,164)"/>
<path d="M17 32h1v1h-1v-1z" fill="rgb(251,216,181)"/>
<path d="M18 32h1v1h-1v-1z" fill="rgb(252,219,181)"/>
<path d="M19 32h1v1h-1v-1z" fill="rgb(244,207,171)"/>
<path d="M20 32h1v1h-1v-1z" fill="rgb(175,116,107)"/>
<path d="M21 32h1v1h-1v-1z" fill="rgb(179,122,116)"/>
<path d="M8 33h1v1h-1v-1z" fill="rgb(244,208,173)"/>
<path d="M9 33h1v1h-1v-1z" fill="rgb(243,204,164)"/>
<path d="M10 33h1v1h-1v-1z" fill="rgb(244,207,171)"/>
<path d="M11 33h1v1h-1v-1z" fill="rgb(252,217,182)"/>
<path d="M12 33h2v1h-2v-1z" fill="rgb(248,214,181)"/>
<path d="M14 33h1v1h-1v-1z" fill="rgb(255,221,184)"/>
<path d="M15 33h1v1h-1v-1z" fill="rgb(238,201,164)"/>
<path d="M16 33h1v1h-1v-1z" fill="rgb(248,213,179)"/>
<path d="M17 33h1v1h-1v-1z" fill="rgb(252,219,181)"/>
<path d="M18 33h1v1h-1v-1z" fill="rgb(244,208,173)"/>
<path d="M19 33h1v2h-1v-2z" fill="rgb(177,118,113)"/>
<path d="M20 33h1v1h-1v-1z" fill="rgb(178,120,114)"/>
<path d="M9 34h1v1h-1v-1z" fill="rgb(255,219,183)"/>
<path d="M10 34h2v1h-2v-1z" fill="rgb(255,218,180)"/>
<path d="M12 34h1v1h-1v-1z" fill="rgb(254,220,182)"/>
<path d="M13 34h1v1h-1v-1z" fill="rgb(251,216,178)"/>
<path d="M14 34h1v1h-1v-1z" fill="rgb(249,214,177)"/>
<path d="M15 34h1v1h-1v-1z" fill="rgb(253,219,183)"/>
<path d="M16 34h1v1h-1v-1z" fill="rgb(254,220,182)"/>
<path d="M17 34h1v1h-1v-1z" fill="rgb(244,208,173)"/>
<path d="M18 34h1v1h-1v-1z" fill="rgb(180,122,114)"/>
<path d="M11 35h1v1h-1v-1z" fill="rgb(247,212,175)"/>
<path d="M12 35h1v1h-1v-1z" fill="rgb(248,210,173)"/>
<path d="M13 35h1v1h-1v-1z" fill="rgb(249,213,176)"/>
<path d="M14 35h1v1h-1v-1z" fill="rgb(246,210,174)"/>
<path d="M15 35h1v1h-1v-1z" fill="rgb(251,216,178)"/>
<path d="M16 35h1v1h-1v-1z" fill="rgb(247,211,175)"/>
<path d="M17 35h1v1h-1v-1z" fill="rgb(185,128,121)"/>
<path d="M18 35h1v1h-1v-1z" fill="rgb(172,114,108)"/>
<path d="M19 35h1v1h-1v-1z" fill="rgb(188,131,123)"/>
<path d="M4 36h1v1h-1v-1z" fill="rgb(37,13,10)"/>
<path d="M5 36h1v1h-1v-1z" fill="rgb(33,8,6)"/>
<path d="M6 36h2v1h-2v-1z" fill="rgb(36,11,8)"/>
<path d="M8 36h1v1h-1v-1z" fill="rgb(35,11,8)"/>
<path d="M9 36h1v1h-1v-1z" fill="rgb(36,12,9)"/>
<path d="M10 36h1v1h-1v-1z" fill="rgb(36,13,10)"/>
<path d="M11 36h1v1h-1v-1z" fill="rgb(34,10,7)"/>
<path d="M12 36h1v1h-1v-1z" fill="rgb(45,17,15)"/>
<path d="M13 36h1v1h-1v-1z" fill="rgb(181,125,117)"/>
<path d="M14 36h1v1h-1v-1z" fill="rgb(185,128,121)"/>
<path d="M15 36h1v1h-1v-1z" fill="rgb(177,118,113)"/>
<path d="M16 36h1v1h-1v-1z" fill="rgb(182,127,120)"/>
<path d="M17 36h1v1h-1v-1z" fill="rgb(179,122,116)"/>
<path d="M18 36h1v1h-1v-1z" fill="rgb(188,131,124)"/>
<path d="M19 36h1v1h-1v-1z" fill="rgb(183,126,118)"/>
<path d="M20 36h1v1h-1v-1z" fill="rgb(37,13,10)"/>
<path d="M21 36h1v2h-1v-2z" fill="rgb(34,10,7)"/>
<path d="M22 36h1v1h-1v-1z" fill="rgb(36,12,9)"/>
<path d="M23 36h6v1h-1v1h-5v-2z" fill="rgb(36,11,8)"/>
<path d="M29 36h1v1h-1v-1z" fill="rgb(33,8,6)"/>
<path d="M30 36h1v1h-1v-1z" fill="rgb(49,24,21)"/>
<path d="M3 37h1v1h-1v-1z" fill="rgb(40,16,13)"/>
<path d="M4 37h1v1h-1v-1z" fill="rgb(31,6,4)"/>
<path d="M5 37h1v1h-1v-1z" fill="rgb(48,21,18)"/>
<path d="M6 37h2v1h-2v-1z" fill="rgb(59,33,30)"/>
<path d="M8 37h3v1h-3v-1z" fill="rgb(36,11,8)"/>
<path d="M11 37h1v1h-1v-1z" fill="rgb(33,8,6)"/>
<path d="M12 37h1v1h-1v-1z" fill="rgb(34,10,7)"/>
<path d="M13 37h1v1h-1v-1z" fill="rgb(248,210,173)"/>
<path d="M14 37h1v1h-1v-1z" fill="rgb(253,216,180)"/>
<path d="M15 37h1v1h-1v-1z" fill="rgb(181,125,117)"/>
<path d="M16 37h1v1h-1v-1z" fill="rgb(177,118,113)"/>
<path d="M17 37h1v1h-1v-1z" fill="rgb(182,127,120)"/>
<path d="M18 37h1v1h-1v-1z" fill="rgb(192,135,128)"/>
<path d="M19 37h1v1h-1v-1z" fill="rgb(181,125,117)"/>
<path d="M20 37h1v1h-1v-1z" fill="rgb(36,11,8)"/>
<path d="M22 37h1v1h-1v-1z" fill="rgb(35,11,8)"/>
<path d="M28 37h1v1h-1v-1z" fill="rgb(36,12,9)"/>
<path d="M29 37h1v1h-1v-1z" fill="rgb(35,11,8)"/>
<path d="M30 37h1v1h-1v-1z" fill="rgb(31,6,4)"/>
<path d="M31 37h1v1h-1v-1z" fill="rgb(50,25,22)"/>
<path d="M1 38h1v1h-1v-1z" fill="rgb(38,14,11)"/>
<path d="M2 38h1v1h-1v-1z" fill="rgb(35,11,8)"/>
<path d="M3 38h1v1h-1v-1z" fill="rgb(34,10,7)"/>
<path d="M4 38h1v1h-1v-1z" fill="rgb(62,36,33)"/>
<path d="M5 38h5v2h1v2h-8v-1h1v-1h1v-2z" fill="rgb(63,37,34)"/>
<path d="M10 38h1v2h-1v-2z" fill="rgb(39,15,12)"/>
<path d="M11 38h2v2h-2v-2z" fill="rgb(36,12,9)"/>
<path d="M13 38h1v1h-1v-1z" fill="rgb(251,215,177)"/>
<path d="M14 38h1v1h-1v-1z" fill="rgb(255,229,190)"/>
<path d="M15 38h1v1h-1v-1z" fill="rgb(247,211,175)"/>
<path d="M16 38h1v1h-1v-1z" fill="rgb(182,127,120)"/>
<path d="M17 38h1v1h-1v-1z" fill="rgb(183,126,118)"/>
<path d="M18 38h1v1h-1v-1z" fill="rgb(190,133,125)"/>
<path d="M19 38h1v1h-1v-1z" fill="rgb(39,15,12)"/>
<path d="M20 38h1v1h-1v-1z" fill="rgb(36,12,9)"/>
<path d="M21 38h1v1h-1v-1z" fill="rgb(38,15,12)"/>
<path d="M22 38h1v1h-1v-1z" fill="rgb(40,16,13)"/>
<path d="M23 38h6v1h-1v1h-1v1h1v1h-7v-2h1v-1h1v-1z" fill="rgb(63,37,34)"/>
<path d="M29 38h1v1h-1v-1z" fill="rgb(40,16,13)"/>
<path d="M30 38h1v1h-1v-1z" fill="rgb(38,14,11)"/>
<path d="M31 38h1v1h-1v-1z" fill="rgb(31,6,4)"/>
<path d="M0 39h1v1h-1v-1z" fill="rgb(40,16,13)"/>
<path d="M1 39h1v1h-1v-1z" fill="rgb(31,6,4)"/>
<path d="M2 39h1v1h-1v-1z" fill="rgb(36,11,8)"/>
<path d="M3 39h1v1h-1v-1z" fill="rgb(62,36,33)"/>
<path d="M4 39h1v1h-1v-1z" fill="rgb(64,38,35)"/>
<path d="M13 39h1v1h-1v-1z" fill="rgb(255,218,180)"/>
<path d="M14 39h1v1h-1v-1z" fill="rgb(255,224,185)"/>
<path d="M15 39h1v1h-1v-1z" fill="rgb(251,216,178)"/>
<path d="M16 39h1v1h-1v-1z" fill="rgb(181,125,117)"/>
<path d="M17 39h1v1h-1v-1z" fill="rgb(185,128,121)"/>
<path d="M18 39h1v1h-1v-1z" fill="rgb(198,139,131)"/>
<path d="M19 39h2v1h-2v-1z" fill="rgb(36,13,10)"/>
<path d="M21 39h1v1h-1v-1z" fill="rgb(40,16,13)"/>
<path d="M28 39h1v1h-1v-1z" fill="rgb(40,16,13)"/>
<path d="M29 39h1v1h1v1h1v1h-3v-3z" fill="rgb(39,15,12)"/>
<path d="M30 39h1v1h-1v-1z" fill="rgb(40,15,12)"/>
<path d="M31 39h1v1h-1v-1z" fill="rgb(35,11,8)"/>
<path d="M0 40h1v1h-1v-1z" fill="rgb(31,6,4)"/>
<path d="M1 40h1v1h-1v-1z" fill="rgb(38,14,11)"/>
<path d="M2 40h1v2h-2v-1h1v-1z" fill="rgb(39,15,12)"/>
<path d="M3 40h1v1h-1v-1z" fill="rgb(64,38,35)"/>
<path d="M11 40h1v1h-1v-1z" fill="rgb(36,13,10)"/>
<path d="M12 40h1v1h-1v-1z" fill="rgb(37,14,11)"/>
<path d="M13 40h1v1h-1v-1z" fill="rgb(238,201,164)"/>
<path d="M14 40h1v1h-1v-1z" fill="rgb(255,236,196)"/>
<path d="M15 40h1v1h-1v-1z" fill="rgb(255,224,185)"/>
<path d="M16 40h1v1h-1v-1z" fill="rgb(188,131,124)"/>
<path d="M17 40h1v1h-1v-1z" fill="rgb(195,135,128)"/>
<path d="M18 40h1v1h-1v-1z" fill="rgb(179,122,116)"/>
<path d="M19 40h1v1h-1v-1z" fill="rgb(38,14,11)"/>
<path d="M20 40h1v1h-1v-1z" fill="rgb(37,14,11)"/>
<path d="M27 40h1v1h-1v-1z" fill="rgb(64,38,35)"/>
<path d="M28 40h1v1h-1v-1z" fill="rgb(57,30,27)"/>
<path d="M31 40h1v1h-1v-1z" fill="rgb(36,12,9)"/>
<path d="M0 41h1v1h-1v-1z" fill="rgb(36,12,9)"/>
<path d="M11 41h1v1h-1v-1z" fill="rgb(38,15,12)"/>
<path d="M12 41h1v1h-1v-1z" fill="rgb(48,21,18)"/>
<path d="M13 41h1v1h-1v-1z" fill="rgb(57,30,27)"/>
<path d="M14 41h1v1h-1v-1z" fill="rgb(242,205,168)"/>
<path d="M15 41h1v1h-1v-1z" fill="rgb(253,217,178)"/>
<path d="M16 41h1v1h-1v-1z" fill="rgb(186,128,120)"/>
<path d="M17 41h1v1h-1v-1z" fill="rgb(175,116,107)"/>
<path d="M18 41h1v1h-1v-1z" fill="rgb(59,33,30)"/>
<path d="M19 41h1v1h-1v-1z" fill="rgb(36,13,10)"/>
<path d="M20 41h1v1h-1v-1z" fill="rgb(39,15,12)"/>
<path d="M28 41h1v1h-1v-1z" fill="rgb(40,16,13)"/>
</svg>