<svg xmlns="http://www.w3.org/2000/svg" viewBox="0 -0.5 51 135" shape-rendering="crispEdges">
<metadata>Made with Pixels to Svg https://codepen.io/shshaw/pen/XbxvNj</metadata>
<path stroke="#040000" d="M21 0h9M31 3h2M34 3h1M34 4h1M36 7h1M50 58h1M50 59h1M0 60h1M50 60h1M0 61h1M50 61h1M0 62h1M50 62h1M0 63h1M50 63h1M0 64h1M0 65h1M0 66h1M0 67h1M0 68h1M10 134h14M27 134h12" />
<path stroke="#240000" d="M19 1h1M15 8h1M36 8h1M15 10h2M24 11h1M40 11h1M24 14h1M28 14h1M28 15h1M31 15h1M31 16h2M32 17h1M33 19h3" />
<path stroke="#200000" d="M20 1h1M31 2h2M33 3h1M13 4h1M33 4h1M15 7h1M37 7h1M11 9h1M17 11h1M30 12h1M9 13h1M13 13h2M19 13h1M26 13h1M22 14h2M38 14h2M9 15h1M30 15h1M10 16h1M38 16h1M33 17h1M34 18h1M37 18h1M19 21h1M24 21h1M11 84h1M9 133h1" />
<path stroke="#683e1c" d="M21 1h1M20 2h1M23 2h4M20 3h2M27 3h1M17 24h1M27 24h1" />
<path stroke="#c79e7c" d="M22 1h1M31 4h1M28 7h1M19 10h1" />
<path stroke="#c9a07f" d="M23 1h1M29 2h1M28 6h1M29 7h1M25 8h1" />
<path stroke="#c89f7e" d="M24 1h2M27 8h1M12 9h1" />
<path stroke="#cba180" d="M26 1h1M30 4h1M32 6h1M21 10h1" />
<path stroke="#c59c7c" d="M27 1h1M21 2h1M28 2h1M16 5h1M31 11h1" />
<path stroke="#280400" d="M28 1h1M30 1h1M18 2h1M17 3h1M35 4h1M15 5h1M13 6h1M15 9h1M14 11h1M16 11h1M25 12h1M18 13h1M20 13h1M40 13h1M14 14h1M21 14h1M26 14h1M31 14h1M13 15h1M32 15h1M39 15h1M13 16h1M13 17h1M38 17h1M10 18h1M13 18h1M37 19h1" />
<path stroke="#1a0000" d="M29 1h1M16 3h1M14 4h1M13 5h2M34 5h2M11 7h2M11 8h1M10 9h1M37 9h1M10 10h1M24 10h1M9 11h2M15 11h1M9 12h1M14 12h1M18 12h2M39 13h1M9 14h1M13 14h1M27 14h1M10 15h1M38 15h1M10 17h1M16 17h1M18 17h1M25 17h2M28 17h1M37 17h1M17 18h1M26 18h1M29 18h1M33 18h1M11 19h1M36 19h1M12 20h1M17 20h1M29 20h1M35 20h2M16 21h1M35 21h2M11 66h1M32 66h2M11 67h1M32 67h2M33 68h1M33 69h1M33 70h1M42 77h1" />
<path stroke="#613816" d="M19 2h1M18 3h1M22 3h5" />
<path stroke="#6c4321" d="M22 2h1M27 2h1M19 3h1M16 24h1M26 24h1" />
<path stroke="#c09575" d="M30 2h1M14 6h1M10 14h1" />
<path stroke="#100000" d="M15 3h1M15 4h1M35 6h1M37 8h1M38 10h1M39 11h1M40 12h1M17 17h1M18 21h1M25 21h2M12 84h3" />
<path stroke="#ba8b68" d="M28 3h1M30 3h1M10 12h1" />
<path stroke="#ca9871" d="M29 3h1" />
<path stroke="#2d0704" d="M16 4h1M23 9h1M39 10h1M32 18h1" />
<path stroke="#c19877" d="M17 4h1M29 4h1M13 7h1" />
<path stroke="#835f41" d="M18 4h1M13 9h1M19 9h1M32 11h1M37 11h1M34 13h1" />
<path stroke="#7a573b" d="M19 4h2M22 4h1M20 5h3M33 5h1M20 6h2M25 6h1M20 7h1M26 7h1M35 7h1M33 8h1M14 9h1M14 10h1M12 12h1" />
<path stroke="#79563a" d="M21 4h1M23 4h1M18 5h2M18 6h2M23 6h1M34 6h1M19 7h1M25 9h1M26 10h1M34 11h1" />
<path stroke="#765337" d="M24 4h1M26 5h1M22 6h1M31 7h2M28 8h1M17 10h1M35 12h1" />
<path stroke="#785539" d="M25 4h2M28 4h1M23 5h1M27 5h1M16 7h1M21 7h1M30 8h1M28 9h1M31 9h2M32 10h2M33 11h1M35 11h1" />
<path stroke="#704e32" d="M27 4h1M28 5h2M26 6h1M22 7h1M21 8h1M32 8h1M24 9h1M33 9h1" />
<path stroke="#7b583c" d="M32 4h1M24 5h1M34 9h1" />
<path stroke="#876445" d="M17 5h1M17 9h1M12 10h1M18 10h1M11 12h1" />
<path stroke="#745135" d="M25 5h1M14 8h1M19 8h2M29 8h1M31 8h1M16 9h1M29 9h1M23 10h1M34 10h1M36 13h1" />
<path stroke="#775438" d="M30 5h1M18 7h1M30 9h1M29 10h1M30 11h1" />
<path stroke="#cfa583" d="M31 5h2M33 6h1M22 11h1" />
<path stroke="#1f0604" d="M12 6h1M13 37h1M39 37h1M40 38h1M10 39h1M9 40h1M7 43h1M43 44h1M48 64h1M47 65h1M46 66h1M45 67h1M3 70h1M4 71h1M5 72h1M41 78h1M6 80h1M8 82h1" />
<path stroke="#300a06" d="M15 6h1M15 12h1M17 12h1M36 12h1M37 13h1M27 15h1M29 15h1M30 16h1" />
<path stroke="#7c593c" d="M16 6h1M16 8h1M13 10h1" />
<path stroke="#7d5a3d" d="M17 6h1M17 7h1M17 8h2M35 10h1M21 11h1M27 11h1M28 12h1" />
<path stroke="#c49a7b" d="M24 6h1M27 6h1M29 6h1M31 6h1M25 7h1M26 8h1M32 12h1" />
<path stroke="#c3997a" d="M30 6h1M27 9h1" />
<path stroke="#240606" d="M36 6h1M38 9h1M12 21h1M16 128h1M22 128h2M29 128h2M35 128h2M22 129h2M30 129h1M35 129h1M13 130h1M22 130h2M11 131h1M13 131h1M22 131h2M29 131h1M36 131h2M9 132h1M11 132h1M22 132h2M29 132h1M22 133h2M37 133h1" />
<path stroke="#8c694c" d="M14 7h1M23 13h1M28 13h1M36 14h1M34 15h3M34 16h1M36 16h1M35 17h2" />
<path stroke="#7f5c3e" d="M23 7h1M22 8h1M24 8h1M30 10h2M26 11h1M35 14h1" />
<path stroke="#cda282" d="M24 7h1M34 8h2" />
<path stroke="#c59b7b" d="M27 7h1M30 7h1M18 9h1M36 9h1M33 13h1" />
<path stroke="#c99f7f" d="M33 7h1M20 10h1M11 11h1" />
<path stroke="#d2a886" d="M34 7h1M35 9h1" />
<path stroke="#bb9172" d="M12 8h1M23 8h1M22 9h1M11 10h1" />
<path stroke="#906c4d" d="M13 8h1M35 16h1" />
<path stroke="#785437" d="M20 9h1M36 11h1" />
<path stroke="#815d40" d="M21 9h1M26 9h1M27 10h1M35 13h1" />
<path stroke="#d6ab88" d="M22 10h1" />
<path stroke="#241611" d="M25 10h1M18 11h1M25 11h1M21 12h1M31 13h1M32 14h1M11 17h1M36 18h1" />
<path stroke="#7a5639" d="M28 10h1" />
<path stroke="#856143" d="M36 10h1M12 11h1M33 12h1M11 14h1" />
<path stroke="#281b14" d="M37 10h1M26 12h1M12 13h1M25 13h1M27 13h1M38 13h1M12 14h1M25 14h1M37 14h1M12 15h1M12 16h1M12 17h1M12 18h1" />
<path stroke="#7b583b" d="M13 11h1M28 11h1M13 12h1M34 12h1" />
<path stroke="#2b1e18" d="M19 11h2M29 11h1M38 11h1M29 12h1M11 15h1M33 15h1" />
<path stroke="#d0a380" d="M23 11h1M10 13h1" />
<path stroke="#b98079" d="M16 12h1M26 35h1M23 36h1M26 39h1" />
<path stroke="#1f130e" d="M20 12h1M21 13h1" />
<path stroke="#32241d" d="M22 12h1M27 12h1M32 13h1M33 14h1" />
<path stroke="#805e41" d="M23 12h1M11 13h1M29 13h1" />
<path stroke="#2f211a" d="M24 12h1M31 12h1M30 13h1M30 14h1M37 15h1M33 16h1M34 17h1M35 18h1" />
<path stroke="#7a5438" d="M37 12h1" />
<path stroke="#332920" d="M38 12h1" />
<path stroke="#1e0f09" d="M39 12h1" />
<path stroke="#bc837b" d="M15 13h1M14 15h1M28 35h1" />
<path stroke="#d59a91" d="M16 13h1" />
<path stroke="#b77e76" d="M17 13h1M35 23h1M33 29h1M28 36h1M26 38h1" />
<path stroke="#866448" d="M22 13h1" />
<path stroke="#8a674a" d="M24 13h1M29 14h1M34 14h1" />
<path stroke="#c08780" d="M15 14h1M20 15h1M27 37h1" />
<path stroke="#c69b95" d="M16 14h1M17 15h1M33 20h1" />
<path stroke="#c38a82" d="M17 14h1M19 14h1M26 15h1" />
<path stroke="#ba8078" d="M18 14h1M20 14h1M23 15h2M25 41h1" />
<path stroke="#d1a49e" d="M15 15h1M26 16h1M28 16h1M31 17h1" />
<path stroke="#c79d98" d="M16 15h1" />
<path stroke="#ca9f99" d="M18 15h1M15 16h1M24 16h1" />
<path stroke="#c59993" d="M19 15h1M16 16h2M23 16h1M25 16h1M34 21h1" />
<path stroke="#b57d75" d="M21 15h1M35 22h1M35 24h1M31 31h1M22 36h1M24 37h1M28 37h1M25 39h1" />
<path stroke="#b97f79" d="M22 15h1" />
<path stroke="#cb9189" d="M25 15h1" />
<path stroke="#23140d" d="M11 16h1M37 16h1M12 19h1" />
<path stroke="#d6a8a2" d="M14 16h1" />
<path stroke="#bc918d" d="M18 16h1M20 16h1M32 19h1M33 22h1M33 23h1M33 24h1M33 25h1M33 26h1M32 28h1M31 29h1M30 30h1M22 32h1" />
<path stroke="#c39792" d="M19 16h1M22 16h1M34 20h1" />
<path stroke="#c29691" d="M21 16h1M29 16h1" />
<path stroke="#c99d98" d="M27 16h1M33 21h1" />
<path stroke="#ba8d88" d="M14 17h1M34 25h1" />
<path stroke="#260b00" d="M15 17h1M16 18h1M27 18h2M16 20h1M17 21h1" />
<path stroke="#fbd8b2" d="M19 17h1M31 22h1M30 28h1M22 34h1M24 35h1M24 39h1" />
<path stroke="#ffddb8" d="M20 17h1M23 17h1M13 20h1M20 20h1M23 20h1M13 22h1M14 24h1M29 24h1M23 33h1" />
<path stroke="#f8d4b0" d="M21 17h1M20 19h1M23 19h1M20 22h4M32 24h1M32 25h1M31 26h1M32 27h1M28 30h1" />
<path stroke="#f7d4af" d="M22 17h1M21 18h2M21 19h2M31 25h1M16 28h1M20 35h1" />
<path stroke="#fdd9b2" d="M24 17h1M31 27h1M24 41h1" />
<path stroke="#220600" d="M27 17h1M15 18h1M18 18h1M25 18h1M15 20h1M18 20h1M25 20h3M30 20h1" />
<path stroke="#2a0f00" d="M29 17h1M28 20h1" />
<path stroke="#bb8e89" d="M30 17h1M34 23h1M34 24h1" />
<path stroke="#1c0c06" d="M11 18h1" />
<path stroke="#301303" d="M14 18h1M14 20h1M27 21h1M16 23h1M26 23h1" />
<path stroke="#fbd7b2" d="M19 18h1M24 18h1" />
<path stroke="#ffe0b9" d="M20 18h1M23 18h1M15 19h1M23 39h1M24 40h1" />
<path stroke="#3e220f" d="M30 18h1" />
<path stroke="#ffdbb7" d="M31 18h1M18 34h1" />
<path stroke="#ffe5be" d="M13 19h1M32 20h1M23 38h1" />
<path stroke="#ffdab4" d="M14 19h1M29 19h1M32 21h1M19 34h2M22 39h1" />
<path stroke="#ffe2bc" d="M16 19h1M27 19h2M19 24h1M24 24h1" />
<path stroke="#c78d85" d="M17 19h1M19 19h1M24 19h1M26 19h1" />
<path stroke="#b57a75" d="M18 19h1M25 19h1" />
<path stroke="#f2cda8" d="M30 19h1M20 30h1M23 30h1M19 31h1M23 41h1" />
<path stroke="#ffecc4" d="M31 19h1M23 40h1" />
<path stroke="#220405" d="M11 20h1M15 129h1M14 130h1M29 130h1M36 130h1M12 131h1M28 131h1M10 132h1M37 132h1M28 133h1M38 133h1" />
<path stroke="#ac726c" d="M19 20h1M24 20h1M27 35h1" />
<path stroke="#f9d5b0" d="M21 20h2M20 23h1M23 23h1M14 27h1M18 27h1M25 27h1M28 27h1M29 29h1M21 30h1M22 35h1" />
<path stroke="#f9d5af" d="M31 20h1M19 26h1M24 26h1M29 26h1M15 27h1M22 30h1" />
<path stroke="#f6cea8" d="M13 21h1M13 24h1M19 25h1M24 25h1M29 25h1" />
<path stroke="#9e9b98" d="M14 21h1M15 22h1" />
<path stroke="#8b8886" d="M15 21h1M28 21h1M30 21h1M19 22h1" />
<path stroke="#f5d1ae" d="M20 21h1M23 21h1M20 26h1M23 26h1M30 26h1M29 27h2M18 28h1M25 28h1M28 28h2M17 29h1M28 29h1M30 29h1M17 30h2M29 31h1M18 32h1" />
<path stroke="#fed9b5" d="M21 21h2" />
<path stroke="#93908e" d="M29 21h1M24 22h2" />
<path stroke="#fbd7b1" d="M31 21h1M32 26h1M22 38h1" />
<path stroke="#ffffff" d="M14 22h1M29 22h2M14 23h2M18 23h2M24 23h2M28 23h2M15 24h1M18 24h1M25 24h1M28 24h1" />
<path stroke="#3c2413" d="M16 22h1" />
<path stroke="#fcfcfc" d="M17 22h1" />
<path stroke="#a1a2a2" d="M18 22h1" />
<path stroke="#432816" d="M26 22h1M17 23h1M27 23h1" />
<path stroke="#f9f8f8" d="M27 22h1" />
<path stroke="#b3b1ae" d="M28 22h1" />
<path stroke="#f8d2ad" d="M32 22h1M13 23h1M30 25h1M21 35h1M22 37h1" />
<path stroke="#c1938e" d="M34 22h1" />
<path stroke="#f4cfab" d="M21 23h2M15 31h1M28 32h1M19 33h1" />
<path stroke="#f9d6b3" d="M30 23h1" />
<path stroke="#f7d1aa" d="M31 23h1M14 28h1" />
<path stroke="#f7d3af" d="M32 23h1M31 24h1M21 26h2M17 28h1M19 28h1M24 28h1M26 28h2M25 30h1M25 35h1M24 38h1" />
<path stroke="#f5cea8" d="M20 24h1M23 24h1M15 28h1M15 29h1M15 30h2" />
<path stroke="#f4d0ad" d="M21 24h2M13 26h1M14 29h1M16 29h1M18 29h1M25 29h3M26 30h2M17 31h1M16 32h1M17 33h1M27 33h1M26 34h1" />
<path stroke="#f3cca4" d="M30 24h1M13 25h1M16 31h1M17 32h1M18 33h1" />
<path stroke="#fbcfa7" d="M14 25h1" />
<path stroke="#be9692" d="M15 25h1M18 25h1M25 25h1M28 25h1" />
<path stroke="#4e6377" d="M16 25h2M26 25h2" />
<path stroke="#f6d2ae" d="M20 25h1M23 25h1M19 27h2M23 27h2M31 28h1M19 29h1M24 29h1M26 31h2M23 35h1" />
<path stroke="#f4d1ae" d="M21 25h2" />
<path stroke="#b47a72" d="M35 25h1M34 27h1M34 28h1M27 34h1" />
<path stroke="#fcd5ac" d="M14 26h1" />
<path stroke="#f5cda9" d="M15 26h1" />
<path stroke="#b98f8d" d="M16 26h2M26 26h2" />
<path stroke="#f5cdaa" d="M18 26h1M25 26h1M28 26h1" />
<path stroke="#b27872" d="M34 26h1M29 33h1" />
<path stroke="#c28f87" d="M35 26h1" />
<path stroke="#fad3af" d="M16 27h2M26 27h2" />
<path stroke="#f2ceac" d="M21 27h2" />
<path stroke="#b98b85" d="M33 27h1" />
<path stroke="#f3cfad" d="M20 28h1M23 28h1" />
<path stroke="#b78b89" d="M21 28h2M21 32h1" />
<path stroke="#aa6b65" d="M33 28h1" />
<path stroke="#fcd9b6" d="M20 29h1M23 29h1M20 33h1" />
<path stroke="#f8d6b5" d="M21 29h2M18 31h1M21 33h2" />
<path stroke="#af7d79" d="M32 29h1M31 30h1" />
<path stroke="#f8d5b3" d="M19 30h1M25 33h1" />
<path stroke="#fddaba" d="M24 30h1M25 31h1" />
<path stroke="#f9d6b1" d="M29 30h1M23 34h1" />
<path stroke="#b67f78" d="M32 30h1M25 36h1M26 37h1M25 38h1" />
<path stroke="#824103" d="M20 31h1M23 31h1M24 32h1" />
<path stroke="#742f00" d="M21 31h2" />
<path stroke="#e9c29c" d="M24 31h1M23 32h1" />
<path stroke="#fcdbb5" d="M28 31h1M27 32h1M26 33h1" />
<path stroke="#b2807b" d="M30 31h1" />
<path stroke="#fbd8b5" d="M19 32h1M26 32h1" />
<path stroke="#eec9a4" d="M20 32h1M25 32h1M24 33h1M22 40h1" />
<path stroke="#af746b" d="M29 32h1M26 41h1" />
<path stroke="#b37a74" d="M30 32h1M26 36h1M27 40h1" />
<path stroke="#b17671" d="M28 33h1M28 34h1M24 36h1M25 37h1" />
<path stroke="#fedcb6" d="M21 34h1M25 34h1" />
<path stroke="#fddbb7" d="M24 34h1" />
<path stroke="#250d0a" d="M13 36h1M29 36h1M34 68h1M34 72h1M42 73h1" />
<path stroke="#210806" d="M14 36h1M38 36h1M20 37h1M44 46h1M5 47h1M45 48h1M4 49h1M46 49h1M3 50h1M46 51h1M3 52h1M2 53h1M47 53h1M2 55h1M48 55h1M1 56h1M49 56h1M12 67h1M11 68h2M32 68h1M43 68h1M11 69h2M32 69h1M11 70h2M32 70h1M11 71h2M32 71h2M11 72h2M32 72h2M11 73h2M32 73h2M11 74h2M32 74h2M42 74h1M11 75h2M32 75h2M11 76h2M5 81h1M9 83h1" />
<path stroke="#240b08" d="M15 36h2M32 36h6M17 37h3M29 37h1M32 37h5M11 39h1M8 41h1M42 42h1M6 44h1M44 45h1M5 46h2M44 47h2M4 48h1M46 52h1M3 53h1M2 56h1M1 57h2M2 58h1M42 68h1M42 69h1M7 75h1M6 76h1M6 77h1M40 79h1M38 80h1" />
<path stroke="#230b08" d="M17 36h1M31 37h1M38 37h1M11 38h1M40 39h1M4 50h1M47 52h1M48 54h1M48 56h1" />
<path stroke="#240c09" d="M18 36h1M31 36h1M37 37h1M20 38h2M29 38h1M20 39h2M40 40h1M9 41h1M41 42h1M7 44h1M43 45h1M5 48h1M45 50h1M4 51h1M3 54h1M47 54h1M1 58h1M49 58h1M2 59h1M1 60h1M44 67h1M10 68h1M10 69h1M34 69h1M41 69h1M34 70h1M40 70h1M40 71h2M7 74h1M6 75h1M42 75h1M7 76h1M6 78h2M40 78h1M7 79h1M39 79h1M38 81h1" />
<path stroke="#240d0a" d="M19 36h1M28 39h2M20 40h1M28 41h1M27 42h1" />
<path stroke="#220a07" d="M20 36h1M30 36h1M21 37h1M30 37h1M12 38h1M41 39h1M41 41h1M8 42h1M42 43h1M6 45h1M45 49h1M49 63h1M1 68h1M6 73h1M41 73h1M5 80h1M6 81h2" />
<path stroke="#2d110f" d="M21 36h1M24 42h1M15 59h1M22 81h1M8 132h1" />
<path stroke="#bc837c" d="M27 36h1M25 40h1" />
<path stroke="#311815" d="M39 36h1M41 38h1M36 43h1M16 47h1M47 64h1M46 65h1M45 66h1M43 67h1M2 68h1M41 68h1M3 69h1M40 69h1M4 70h1M5 71h1M33 76h1M7 80h1M29 82h1" />
<path stroke="#28100d" d="M12 37h1M31 38h1M38 38h1M9 39h1M30 39h1M37 39h1M37 41h1M7 42h1M10 42h1M25 42h1M39 42h1M9 43h2M19 43h1M43 43h1M8 44h2M11 44h1M13 44h1M41 44h1M8 45h2M11 45h1M41 45h2M7 46h2M41 46h2M8 47h1M41 47h1M43 47h1M7 48h1M16 48h1M42 48h1M7 49h1M27 49h1M5 50h1M7 50h1M7 53h1M16 53h1M49 64h1M48 65h1M9 66h1M34 66h1M25 68h1M45 68h1M1 69h2M24 69h1M2 70h1M10 71h1M4 72h1M39 72h1M5 73h1M8 73h1M10 73h1M10 74h1M8 75h1M25 75h1M9 76h1M8 83h1M34 83h1" />
<path stroke="#301512" d="M14 37h1M21 41h1M45 51h1M46 53h1M48 58h1M15 60h1M48 63h1M26 73h1M26 75h1M16 76h1M26 76h1M7 77h1M16 77h1M16 78h1M19 81h3" />
<path stroke="#3b211e" d="M15 37h2M27 41h1M40 72h1M41 74h1M41 75h1M41 76h1M8 133h1" />
<path stroke="#fdd8b4" d="M23 37h1" />
<path stroke="#321916" d="M40 37h1M37 42h1M6 48h1M6 50h1M5 51h1M4 53h2M4 54h2M4 55h1M3 56h2M3 57h2M3 58h1M3 59h1M48 59h1M2 60h2M48 60h1M2 61h2M47 61h2M2 62h2M46 62h3M2 63h2M46 63h2M2 64h2M45 64h2M1 65h3M44 65h2M1 66h3M43 66h2M1 67h4M13 67h1M28 67h4M41 67h2M3 68h2M13 68h1M27 68h5M40 68h1M4 69h2M13 69h3M27 69h5M5 70h1M15 70h1M27 70h5M37 70h3M6 71h3M13 71h3M27 71h5M7 72h2M13 72h3M27 72h5M36 72h1M9 73h1M13 73h3M27 73h1M29 73h3M9 74h1M13 74h3M27 74h1M30 74h2M34 74h1M36 74h1M13 75h3M27 75h1M31 75h1M36 75h2M13 76h1M27 76h1M32 76h1M34 76h1M38 76h1M10 77h4M28 77h1M33 77h1M35 77h1M10 78h3M28 78h1M35 78h2M8 79h2M11 79h1M28 79h1M36 79h2M8 80h3M28 80h2M28 81h2M31 82h2" />
<path stroke="#260e0b" d="M10 38h1M39 38h1M8 40h1M10 40h1M28 40h1M41 40h1M42 41h1M28 42h1M6 43h1M27 43h1M44 44h1M5 45h1M45 46h1M4 47h1M46 48h1M3 49h1M46 50h1M3 51h1M47 51h1M2 52h1M48 53h1M2 54h1M1 55h1M49 55h1M49 57h1M1 59h1M9 64h1M10 66h1M44 68h1M43 69h1M41 70h1M34 71h1M38 72h1M41 72h1M34 73h2M6 74h1M42 76h1M41 77h1M6 79h1M39 80h1M34 82h1M33 83h1M35 83h1" />
<path stroke="#3e2421" d="M13 38h1M12 39h1M13 42h1M34 42h1M33 43h1M12 44h1M14 44h1M32 44h1M15 45h1M31 45h1M34 45h1M30 46h1M33 46h1M14 47h1M32 47h1M15 48h1M30 48h1M28 49h1M9 55h1M47 55h1M7 58h1M7 61h1M9 61h1M38 61h1M40 61h1M36 62h1M35 63h1M38 63h1M34 64h1M37 64h1M36 65h1M12 66h1M17 69h1M25 69h1M17 74h1M39 76h1M39 78h1M10 82h1M11 83h2" />
<path stroke="#3f2522" d="M14 38h5M32 38h6M14 39h5M31 39h6M13 40h7M30 40h6M12 41h8M30 41h7M14 42h6M29 42h5M38 42h1M14 43h5M29 43h4M37 43h1M15 44h4M28 44h4M35 44h4M13 45h1M17 45h1M28 45h3M35 45h4M11 46h1M13 46h1M16 46h2M28 46h1M34 46h5M11 47h3M17 47h1M28 47h2M33 47h6M11 48h4M17 48h1M31 48h8M43 48h1M11 49h6M29 49h10M42 49h1M10 50h7M27 50h1M29 50h10M42 50h1M44 50h1M10 51h7M27 51h12M42 51h3M6 52h1M10 52h6M27 52h12M41 52h5M6 53h1M10 53h6M27 53h12M41 53h5M6 54h2M10 54h6M27 54h12M41 54h6M5 55h3M10 55h6M27 55h12M41 55h6M5 56h3M9 56h7M27 56h12M41 56h7M5 57h3M9 57h7M27 57h12M41 57h7M4 58h3M9 58h6M27 58h12M41 58h7M4 59h3M9 59h6M27 59h12M41 59h7M4 60h3M9 60h6M27 60h12M41 60h7M4 61h3M10 61h6M27 61h11M41 61h6M4 62h4M10 62h6M27 62h9M40 62h6M4 63h4M10 63h6M27 63h8M39 63h7M4 64h4M11 64h5M27 64h6M38 64h7M4 65h5M11 65h1M13 65h3M27 65h7M37 65h7M4 66h5M13 66h3M27 66h5M35 66h8M5 67h5M14 67h2M34 67h1M36 67h5M5 68h5M15 68h1M35 68h5M6 69h4M16 69h1M35 69h4M6 70h4M14 70h1M17 70h1M25 70h1M35 70h2M9 71h1M16 71h2M25 71h1M16 72h2M25 72h1M35 72h1M17 73h1M25 73h1M28 73h1M39 73h2M16 74h1M25 74h1M28 74h2M37 74h4M28 75h3M35 75h1M38 75h3M8 76h1M15 76h1M28 76h4M35 76h2M40 76h1M9 77h1M14 77h2M29 77h4M36 77h3M8 78h1M13 78h3M29 78h6M37 78h1M12 79h4M29 79h7M11 80h4M30 80h5M36 80h1M9 81h1M11 81h4M30 81h6M12 82h1M13 83h2" />
<path stroke="#270f0c" d="M19 38h1M28 38h1M19 39h1M38 39h1M11 40h1M38 40h2M10 41h2M29 41h1M38 41h3M9 42h1M11 42h2M20 42h1M35 42h2M40 42h1M8 43h1M11 43h3M28 43h1M34 43h1M39 43h3M10 44h1M27 44h1M33 44h2M39 44h2M42 44h1M7 45h1M10 45h1M14 45h1M19 45h1M27 45h1M32 45h2M39 45h2M9 46h2M14 46h2M18 46h1M27 46h1M31 46h2M39 46h2M43 46h1M6 47h2M9 47h2M15 47h1M18 47h1M26 47h1M30 47h2M39 47h2M42 47h1M8 48h3M28 48h2M39 48h3M44 48h1M5 49h1M8 49h3M18 49h1M39 49h3M8 50h2M17 50h1M26 50h1M39 50h3M7 51h3M26 51h1M39 51h3M4 52h1M7 52h3M26 52h1M39 52h2M8 53h2M17 53h1M26 53h1M39 53h2M8 54h2M16 54h1M26 54h1M39 54h2M3 55h1M8 55h1M26 55h1M39 55h2M8 56h1M26 56h1M39 56h2M8 57h1M26 57h1M39 57h2M8 58h1M26 58h1M39 58h2M7 59h2M26 59h1M39 59h2M49 59h1M7 60h2M26 60h1M39 60h2M49 60h1M1 61h1M8 61h1M26 61h1M39 61h1M49 61h1M1 62h1M8 62h2M26 62h1M37 62h3M49 62h1M1 63h1M8 63h2M26 63h1M36 63h2M1 64h1M8 64h1M10 64h1M26 64h1M35 64h2M9 65h2M26 65h1M34 65h2M26 66h1M10 67h1M16 67h1M26 67h1M18 69h1M10 70h1M3 71h1M38 71h2M6 72h1M10 72h1M37 72h1M7 73h1M36 73h3M8 74h1M35 74h1M9 75h2M16 75h1M10 76h1M42 78h1M27 79h1M38 79h1M16 80h1M26 80h2M8 81h1M15 81h2M37 81h1M9 82h1M16 82h1M36 82h1M28 83h1M30 83h1M15 84h1" />
<path stroke="#be857d" d="M27 38h1" />
<path stroke="#260f0c" d="M30 38h1M20 41h1M35 43h1M19 44h1M18 45h1M27 47h1M18 48h1M26 48h2M26 49h1M17 51h1M17 52h1M16 55h1M16 56h1M16 57h1M16 58h1M16 59h1M16 60h1M16 61h1M16 62h1M16 63h1M16 64h1M16 65h1M16 66h1M16 68h1M18 70h1M24 70h1M18 71h1M24 71h1M18 72h1M24 72h1M18 73h1M24 73h1M18 74h1M24 74h1M17 75h2M24 75h1M15 80h1" />
<path stroke="#402623" d="M13 39h1M12 40h1M36 40h1M26 42h1M38 43h1M12 45h1M16 45h1M12 46h1M29 46h1M43 49h1M28 50h1M43 50h1M33 64h1M12 65h1M35 67h1M35 71h1M8 77h1M38 78h1M35 80h1M10 81h1M11 82h1M13 82h2" />
<path stroke="#c68b83" d="M27 39h1" />
<path stroke="#280f0c" d="M39 39h1M44 49h1M48 57h1M17 68h1M26 79h1M37 80h1M27 81h1M36 81h1M15 82h1M27 82h2M30 82h1M33 82h1M35 82h1M10 83h1M15 83h2M29 83h1M31 83h2" />
<path stroke="#250e0b" d="M21 40h1M29 40h1" />
<path stroke="#c38780" d="M26 40h1" />
<path stroke="#391e1b" d="M37 40h1M22 41h1M23 42h1M16 52h1M15 58h1M26 70h1M26 71h1M24 80h2M23 81h1M10 131h1" />
<path stroke="#4e151f" d="M21 42h1M22 43h1M23 44h1M26 44h1M26 45h1M26 46h1M25 50h1M25 51h1M25 52h1M25 53h1M25 54h1M25 55h1M25 56h1M25 57h1M25 58h1M25 59h1M25 60h1M25 61h1M25 62h1M25 63h1M25 64h1M25 65h1M25 66h1M25 76h1M24 78h1M23 79h1" />
<path stroke="#49111b" d="M22 42h1" />
<path stroke="#341916" d="M20 43h1M26 78h1M17 81h1" />
<path stroke="#4e161f" d="M21 43h1M20 44h2M24 44h2M24 45h2M25 46h1M24 47h1M24 48h2M24 49h2M24 50h1M24 51h1M24 52h1M24 53h1M24 54h1M24 55h1M24 56h1M24 57h1M24 58h1M24 59h1M24 60h1M24 61h1M24 62h1M24 63h1M24 64h1M24 65h1M24 66h1M24 67h1M23 68h1M23 76h2M24 77h2M25 78h1M24 79h2M23 80h1" />
<path stroke="#4b131d" d="M23 43h2" />
<path stroke="#4c141d" d="M25 43h1" />
<path stroke="#4d151e" d="M26 43h1M25 67h1M24 68h1M23 69h1M23 70h1M23 71h1M23 72h1M23 73h1M23 74h1" />
<path stroke="#4d161f" d="M22 44h1M24 46h1M25 47h1M23 49h1M23 50h1M23 51h1M23 52h1M23 53h1M23 54h1M23 55h1M23 56h1M23 57h1M23 58h1M23 59h1M23 60h1M23 61h1M23 62h1M23 63h1M23 64h1M23 65h1M23 66h1M23 67h1M23 75h1M23 77h1M23 78h1" />
<path stroke="#671523" d="M20 45h1M23 45h1M19 46h1M21 46h1M21 47h3M19 48h1M21 48h3M19 49h1M21 49h2M18 50h1M20 50h3M20 51h3M18 52h1M20 52h3M18 53h1M20 53h3M17 54h1M19 54h4M19 55h4M17 56h1M19 56h4M17 57h1M19 57h4M17 58h1M19 58h4M19 59h4M19 60h4M17 61h1M19 61h4M17 62h1M19 62h4M17 63h1M19 63h4M17 64h1M19 64h4M17 65h1M19 65h4M19 66h4M17 67h1M19 67h4M18 68h1M20 68h3M19 69h1M21 69h1M19 70h1M21 70h1M19 71h1M21 71h1M19 72h1M21 72h1M19 73h1M21 73h1M19 74h1M21 74h1M19 75h1M21 75h1M17 76h1M20 76h3M19 77h4M17 78h1M19 78h4" />
<path stroke="#681523" d="M21 45h2M20 46h1M22 46h2M19 47h2M20 48h1M20 49h1M19 50h1M18 51h2M19 52h1M19 53h1M18 54h1M17 55h2M18 56h1M18 57h1M18 58h1M17 59h2M17 60h2M18 61h1M18 62h1M18 63h1M18 64h1M18 65h1M17 66h2M18 67h1M19 68h1M20 69h1M22 69h1M20 70h1M22 70h1M20 71h1M22 71h1M20 72h1M22 72h1M20 73h1M22 73h1M20 74h1M22 74h1M20 75h1M22 75h1M18 76h2M17 77h2M18 78h1M17 79h6M17 80h6" />
<path stroke="#331a17" d="M6 49h1M17 49h1M6 51h1M5 52h1M14 68h1M26 69h1M39 69h1M13 70h1M16 70h1M36 71h1M9 72h1M16 73h1M34 75h1M14 76h1M39 77h1M9 78h1" />
<path stroke="#361e1b" d="M47 66h1M26 68h1M7 82h1" />
<path stroke="#311916" d="M27 67h1M46 67h1M37 71h1M37 76h1M27 77h1M34 77h1M40 77h1M27 78h1M10 79h1" />
<path stroke="#321713" d="M26 72h1M26 74h1M26 77h1M16 79h1M41 79h1M18 81h1" />
<path stroke="#442f2c" d="M43 77h1" />
<path stroke="#0b1321" d="M24 81h3M17 82h7M21 83h1M21 84h1M33 84h1M13 85h1M35 86h5M10 87h1M36 87h1M36 88h1" />
<path stroke="#161f2d" d="M39 81h1M38 82h2M38 83h2M10 84h1M38 84h2M10 85h1M38 87h2M9 88h1M38 88h2M9 89h1M38 89h2M26 91h1M22 92h1M22 93h2M26 93h2M23 94h1M27 94h1M23 95h1M23 96h1M28 96h1M23 97h1M27 97h2M23 98h1M27 98h2M23 99h1M27 99h2M23 100h1M27 100h1M23 101h1M27 101h1M23 102h1M27 102h1M23 103h1M27 103h1M23 104h1M27 104h1M23 105h1M27 105h1M22 106h2M27 106h1M22 107h2M27 107h1M12 108h2M22 108h2M27 108h2M37 108h1M12 109h2M22 109h2M27 109h2M37 109h1M12 110h2M22 110h2M27 110h2M37 110h1M13 111h1M22 111h2M27 111h2M37 111h1M22 112h2M27 112h2M14 113h1M22 113h2M27 113h1M13 114h2M22 114h2M28 114h1M13 115h2M22 115h2M13 116h1M23 116h1M13 117h1M23 117h1M28 117h1M23 118h1M28 118h1M28 119h2M28 120h2M28 121h2M29 122h1M29 125h1M29 126h2M29 127h2" />
<path stroke="#192232" d="M24 82h1M26 82h1M17 83h3M37 83h1M29 84h2M36 84h1M16 85h1M30 85h2" />
<path stroke="#1a2331" d="M25 82h1M23 83h1M26 83h1M17 84h1M19 84h1M27 84h1M31 84h1M37 84h1M29 85h1M32 85h1M34 87h1M29 109h1M35 109h1M35 111h1M29 112h1" />
<path stroke="#1a2231" d="M37 82h1M25 83h1M27 83h1M16 84h1M18 84h1M28 84h1M15 85h1M17 85h1M31 86h1M33 86h1M32 87h2M35 88h1M37 88h1M37 89h1M21 92h1M21 108h1M14 109h8M14 110h8M14 111h8M15 112h7M15 113h1M21 113h1" />
<path stroke="#182130" d="M20 83h1M36 83h1M9 84h1M20 84h1M32 84h1M14 85h1M33 85h1M35 87h1M37 87h1M23 92h1M26 92h1M26 95h1M27 96h1M12 107h1M37 107h1M12 112h1M13 113h1M28 116h1M29 124h1" />
<path stroke="#465369" d="M22 83h1M34 84h1M35 85h1M11 86h1" />
<path stroke="#192230" d="M24 83h1M32 86h1M28 95h1M29 110h7M29 111h6M14 112h1" />
<path stroke="#48566b" d="M22 84h1M36 85h2" />
<path stroke="#253042" d="M23 84h1M25 84h2M18 85h2M23 85h1M25 85h4M14 86h7M22 86h1M24 86h7M13 87h8M23 87h9M12 88h9M22 88h13M11 89h10M22 89h14M11 90h10M22 90h2M27 90h9M37 90h1M11 91h10M27 91h9M37 91h1M12 92h9M28 92h8M37 92h1M12 93h10M28 93h8M37 93h1M12 94h10M28 94h8M37 94h1M12 95h10M29 95h7M12 96h10M29 96h7M12 97h10M29 97h7M12 98h10M29 98h7M12 99h10M29 99h7M13 100h9M29 100h7M13 101h9M29 101h7M13 102h9M29 102h7M13 103h9M29 103h7M13 104h9M29 104h7M13 105h9M29 105h7M14 106h8M29 106h7M14 107h8M29 107h7M14 108h7M29 108h7M30 109h5M30 112h6M16 113h5M29 113h7M15 114h7M29 114h7M15 115h7M30 115h6M15 116h7M30 116h5M15 117h7M30 117h5M15 118h7M30 118h5M16 119h6M30 119h5M16 120h6M30 120h5M16 121h6M30 121h5M16 122h6M30 122h5M16 123h6M31 123h4M17 124h5M31 124h4M17 125h5M31 125h4M17 126h5M31 126h4M17 127h5M31 127h4" />
<path stroke="#242f41" d="M24 84h1M20 85h1M24 85h1M13 86h1M23 86h1M12 87h1M22 87h1M11 88h1M26 90h1M9 92h1M11 92h1M10 93h1M37 95h1M39 95h1M38 96h1M10 100h1M12 100h1M11 101h1M13 106h1M38 106h1M29 115h1M35 116h1M37 118h1M15 119h1M36 119h1M14 120h1M30 123h1M14 124h1M16 124h1M15 125h1" />
<path stroke="#1c2534" d="M35 84h1" />
<path stroke="#18202f" d="M9 85h1M34 86h1M11 106h1M27 115h1M13 119h1M28 123h1" />
<path stroke="#1b2433" d="M11 85h1" />
<path stroke="#445167" d="M12 85h1M38 85h2M9 86h2" />
<path stroke="#121c2e" d="M21 85h1M11 87h1" />
<path stroke="#64748d" d="M22 85h1" />
<path stroke="#0d1729" d="M34 85h1M12 86h1M36 109h1M36 111h1M36 113h1M36 114h1M36 115h1M36 116h1M36 117h1M35 120h1M35 121h1M35 122h1M35 123h1M35 124h1M35 125h1" />
<path stroke="#111b2d" d="M21 86h1M21 87h1M21 88h1M21 89h1M36 89h1M21 90h1M36 90h1M21 91h2M24 91h2M36 91h1M36 92h1M36 93h1M36 94h1M36 95h1M36 96h1M36 97h1M36 98h1M36 99h1M36 100h1M36 101h1M36 102h1M36 103h1M36 104h1M36 105h1M36 106h1M35 117h1M35 118h1" />
<path stroke="#0e182a" d="M9 87h1M23 91h1M36 107h1M36 108h1M36 110h1M36 112h1M35 119h1M35 126h1M35 127h1" />
<path stroke="#202c3e" d="M10 88h1M12 105h1" />
<path stroke="#212c3f" d="M10 89h1M10 90h1M25 90h1M39 90h1M39 91h1M27 92h1M38 92h1M38 93h1M38 94h1M22 95h1M38 98h1M38 99h1M38 100h1M28 101h1M38 101h1M38 102h1M11 103h2M38 103h1M12 104h1M22 104h1M37 104h1M28 106h1M13 107h1M37 113h1M14 117h1M22 117h1M29 117h1M22 119h1M22 120h2M23 127h1" />
<path stroke="#212c3e" d="M9 90h1M10 91h1M39 92h1M39 93h1M11 94h1M22 94h1M10 95h2M10 96h2M22 96h1M10 97h2M22 97h1M37 97h1M10 98h2M22 98h1M37 98h1M11 99h1M22 99h1M37 99h1M22 100h1M28 100h1M37 100h1M22 101h1M37 101h1M12 102h1M22 102h1M28 102h1M37 102h1M22 103h1M28 103h1M37 103h1M11 104h1M28 104h1M22 105h1M28 105h1M37 105h1M28 107h1M37 112h1M28 113h1M37 114h1M37 115h1M14 116h1M22 116h1M37 116h1M14 118h1M22 118h1M29 118h1M23 119h1M15 121h1M22 121h2M36 121h1M14 122h2M22 122h2M36 122h1M15 123h1M22 123h2M36 123h1M22 124h2M36 124h1M22 125h2M30 125h1M36 125h1M36 127h1" />
<path stroke="#212d3f" d="M24 90h1M38 90h1M38 91h1M11 93h1M10 94h1M37 96h1M12 101h1M11 102h1M38 104h1M29 116h1M15 120h1M36 120h1M14 121h1M16 125h1M15 126h2M22 126h2M36 126h1M15 127h2M22 127h1" />
<path stroke="#1e2a3c" d="M9 91h1M10 92h1M39 94h1M10 99h1M11 100h1M37 117h1M36 118h1M14 119h1M14 123h1M15 124h1" />
<path stroke="#131b2a" d="M26 94h1M27 114h1M13 118h1M28 122h1" />
<path stroke="#131c2b" d="M27 95h1M11 105h1M12 106h1M37 106h1M12 111h1M13 112h1M28 115h1M29 123h1" />
<path stroke="#1f2a3d" d="M38 95h1M38 105h1" />
<path stroke="#222d3f" d="M38 97h1M30 124h1" />
<path stroke="#280a0a" d="M15 128h1M17 128h5M31 128h4M16 129h6M29 129h1M31 129h4M36 129h1M12 130h1M15 130h7M28 130h1M30 130h6M37 130h1M14 131h8M30 131h6M12 132h10M28 132h1M30 132h7M38 132h1M10 133h12M27 133h1M29 133h8" />
<path stroke="#290b0c" d="M14 129h1" />
<path stroke="#211c19" d="M9 134h1" />
</svg>