<?xml version="1.0" encoding="UTF-8" standalone="no"?>
<svg
   xmlns:dc="http://purl.org/dc/elements/1.1/"
   xmlns:cc="http://creativecommons.org/ns#"
   xmlns:rdf="http://www.w3.org/1999/02/22-rdf-syntax-ns#"
   xmlns:svg="http://www.w3.org/2000/svg"
   xmlns="http://www.w3.org/2000/svg"
   xmlns:sodipodi="http://sodipodi.sourceforge.net/DTD/sodipodi-0.dtd"
   xmlns:inkscape="http://www.inkscape.org/namespaces/inkscape"
   width="23.967953"
   height="23.376413"
   viewBox="0 0 23.967953 23.376413"
   fill="none"
   version="1.1"
   id="svg4"
   sodipodi:docname="github.svg"
   inkscape:version="1.0 (4035a4fb49, 2020-05-01)">
  <metadata
     id="metadata10">
    <rdf:RDF>
      <cc:Work
         rdf:about="">
        <dc:format>image/svg+xml</dc:format>
        <dc:type
           rdf:resource="http://purl.org/dc/dcmitype/StillImage" />
      </cc:Work>
    </rdf:RDF>
  </metadata>
  <defs
     id="defs8" />
  <sodipodi:namedview
     inkscape:document-rotation="0"
     pagecolor="#ffffff"
     bordercolor="#666666"
     borderopacity="1"
     objecttolerance="10"
     gridtolerance="10"
     guidetolerance="10"
     inkscape:pageopacity="0"
     inkscape:pageshadow="2"
     inkscape:window-width="1920"
     inkscape:window-height="1053"
     id="namedview6"
     showgrid="false"
     inkscape:snap-bbox="true"
     inkscape:bbox-paths="true"
     inkscape:bbox-nodes="true"
     inkscape:snap-bbox-edge-midpoints="true"
     inkscape:snap-bbox-midpoints="true"
     inkscape:snap-center="true"
     inkscape:snap-object-midpoints="true"
     showguides="true"
     inkscape:guide-bbox="true"
     inkscape:zoom="14.247736"
     inkscape:cx="4.2042366"
     inkscape:cy="9.5795317"
     inkscape:window-x="1080"
     inkscape:window-y="495"
     inkscape:window-maximized="1"
     inkscape:current-layer="layer2">
    <sodipodi:guide
       position="1.4e-08,55.29512"
       orientation="1,0"
       id="guide835" />
    <sodipodi:guide
       position="55.097373,-8.881586e-05"
       orientation="0,-1"
       id="guide837" />
    <sodipodi:guide
       position="29.813913,37.173332"
       orientation="1,0"
       id="guide839" />
  </sodipodi:namedview>
  <g
     inkscape:label="Layer 2"
     id="layer2"
     inkscape:groupmode="layer">
    <path
       d="M -7.7617188 -4.2539062 L -7.7617188 28.201172 L 34.658203 28.201172 L 34.658203 -4.2539062 L -7.7617188 -4.2539062 z M -2.6757812 -1.2148438 L 26.644531 -1.2148438 L 26.644531 24.591797 L -2.6757812 24.591797 L -2.6757812 -1.2148438 z M 11.984375 0 C 5.3632675 0 0 5.363275 0 11.984375 C -1.1842379e-15 17.287275 3.4297552 21.765716 8.1933594 23.353516 C 8.7925545 23.459116 9.0175781 23.099656 9.0175781 22.785156 C 9.0175781 22.500456 9.0039062 21.556434 9.0039062 20.552734 C 5.9929418 21.107134 5.2123374 19.818631 4.9726562 19.144531 C 4.8378331 18.800031 4.2534543 17.735672 3.7441406 17.451172 C 3.3246978 17.226372 2.7267594 16.673203 3.7304688 16.658203 C 4.6742015 16.643203 5.3475595 17.527119 5.5722656 17.886719 C 6.6508139 19.699219 8.3734248 19.1896 9.0625 18.875 C 9.167364 18.0961 9.4816343 17.571084 9.8261719 17.271484 C 7.1597526 16.971884 4.375 15.939369 4.375 11.355469 C 4.375 10.052169 4.8395369 8.9736656 5.6035156 8.1347656 C 5.4836796 7.8351656 5.0635386 6.6066844 5.7226562 4.9589844 C 5.7226562 4.9589844 6.7256569 4.6446 9.0175781 6.1875 C 9.9762925 5.9179 10.995035 5.78125 12.013672 5.78125 C 13.032299 5.78125 14.051069 5.9173 15.009766 6.1875 C 17.301687 4.6297 18.304686 4.9589844 18.304688 4.9589844 C 18.963793 6.6066844 18.545626 7.8351656 18.425781 8.1347656 C 19.189743 8.9736656 19.654297 10.037269 19.654297 11.355469 C 19.654297 15.954269 16.851966 16.971884 14.185547 17.271484 C 14.619957 17.646084 14.994141 18.364881 14.994141 19.488281 C 14.994141 21.091181 14.980469 22.380556 14.980469 22.785156 C 14.980469 23.099656 15.205493 23.473416 15.804688 23.353516 C 20.538325 21.765716 23.96875 17.272175 23.96875 11.984375 C 23.96875 5.363275 18.605482 0 11.984375 0 z "
       style="opacity:1;fill:#ffffff;fill-opacity:1;stroke:none;stroke-width:0;stroke-linejoin:miter;stroke-miterlimit:4;stroke-dasharray:none;stroke-opacity:1;paint-order:stroke fill markers"
       id="rect862" />
  </g>
  <g
     style="display:inline"
     inkscape:label="Layer 1"
     id="layer1"
     inkscape:groupmode="layer" />
</svg>
