<?xml version="1.0" encoding="UTF-8" standalone="no"?>
<svg
   xmlns:dc="http://purl.org/dc/elements/1.1/"
   xmlns:cc="http://creativecommons.org/ns#"
   xmlns:rdf="http://www.w3.org/1999/02/22-rdf-syntax-ns#"
   xmlns:svg="http://www.w3.org/2000/svg"
   xmlns="http://www.w3.org/2000/svg"
   xmlns:sodipodi="http://sodipodi.sourceforge.net/DTD/sodipodi-0.dtd"
   xmlns:inkscape="http://www.inkscape.org/namespaces/inkscape"
   width="24"
   height="24"
   viewBox="0 0 24 24"
   version="1.1"
   id="svg4"
   sodipodi:docname="linkedin.svg"
   inkscape:version="0.92.4 5da689c313, 2019-01-14">
  <metadata
     id="metadata10">
    <rdf:RDF>
      <cc:Work
         rdf:about="">
        <dc:format>image/svg+xml</dc:format>
        <dc:type
           rdf:resource="http://purl.org/dc/dcmitype/StillImage" />
      </cc:Work>
    </rdf:RDF>
  </metadata>
  <defs
     id="defs8" />
  <sodipodi:namedview
     pagecolor="#ffffff"
     bordercolor="#666666"
     borderopacity="1"
     objecttolerance="10"
     gridtolerance="10"
     guidetolerance="10"
     inkscape:pageopacity="0"
     inkscape:pageshadow="2"
     inkscape:window-width="1920"
     inkscape:window-height="1053"
     id="namedview6"
     showgrid="false"
     inkscape:zoom="19.666667"
     inkscape:cx="11.323113"
     inkscape:cy="9.5439046"
     inkscape:window-x="1080"
     inkscape:window-y="423"
     inkscape:window-maximized="1"
     inkscape:current-layer="svg4" />
  <rect
     style="opacity:1;fill:#ffffff;fill-opacity:1;stroke:none;stroke-width:0;stroke-linejoin:miter;stroke-miterlimit:4;stroke-dasharray:none;stroke-opacity:1;paint-order:stroke fill markers"
     id="rect975"
     width="24"
     height="24"
     x="0"
     y="0" />
  <path
     d="m 20,19 h -3 v -5.604 c 0,-3.368 -4,-3.113 -4,0 V 19 H 10 V 8 h 3 v 1.765 c 1.397,-2.586 7,-2.777 7,2.476 z"
     style="fill:#000000"
     id="path866"
     inkscape:connector-curvature="0" />
  <path
     d="m 6.5,6.732 c -0.966,0 -1.75,-0.79 -1.75,-1.764 0,-0.974 0.784,-1.764 1.75,-1.764 0.966,0 1.75,0.79 1.75,1.764 0,0.974 -0.783,1.764 -1.75,1.764 z"
     style="fill:#000000"
     id="path864"
     inkscape:connector-curvature="0" />
  <path
     d="M 8,19 H 5 V 8 h 3 z"
     style="fill:#000000"
     id="path862"
     inkscape:connector-curvature="0" />
  <path
     d="M 0,0 V 24 H 24 V 0 Z"
     style="fill:none"
     id="path2"
     inkscape:connector-curvature="0" />
</svg>
