<?xml version="1.0" encoding="UTF-8" standalone="no"?>
<svg
   xmlns:dc="http://purl.org/dc/elements/1.1/"
   xmlns:cc="http://creativecommons.org/ns#"
   xmlns:rdf="http://www.w3.org/1999/02/22-rdf-syntax-ns#"
   xmlns:svg="http://www.w3.org/2000/svg"
   xmlns="http://www.w3.org/2000/svg"
   xmlns:sodipodi="http://sodipodi.sourceforge.net/DTD/sodipodi-0.dtd"
   xmlns:inkscape="http://www.inkscape.org/namespaces/inkscape"
   width="24"
   height="19.504"
   viewBox="0 0 24 19.504"
   version="1.1"
   id="svg4"
   sodipodi:docname="twitter.svg"
   inkscape:version="0.92.4 5da689c313, 2019-01-14">
  <metadata
     id="metadata10">
    <rdf:RDF>
      <cc:Work
         rdf:about="">
        <dc:format>image/svg+xml</dc:format>
        <dc:type
           rdf:resource="http://purl.org/dc/dcmitype/StillImage" />
      </cc:Work>
    </rdf:RDF>
  </metadata>
  <defs
     id="defs8" />
  <sodipodi:namedview
     pagecolor="#ffffff"
     bordercolor="#666666"
     borderopacity="1"
     objecttolerance="10"
     gridtolerance="10"
     guidetolerance="10"
     inkscape:pageopacity="0"
     inkscape:pageshadow="2"
     inkscape:window-width="1920"
     inkscape:window-height="1053"
     id="namedview6"
     showgrid="false"
     inkscape:zoom="9.8333333"
     inkscape:cx="12"
     inkscape:cy="9.752"
     inkscape:window-x="1080"
     inkscape:window-y="423"
     inkscape:window-maximized="1"
     inkscape:current-layer="svg4" />
  <path
     d="M 24,2.309 C 23.117,2.701 22.168,2.965 21.172,3.084 22.189,2.475 22.97,1.51 23.337,0.36 22.386,0.924 21.332,1.334 20.21,1.555 19.313,0.598 18.032,0 16.616,0 13.437,0 11.101,2.966 11.819,6.045 7.728,5.84 4.1,3.88 1.671,0.901 0.381,3.114 1.002,6.009 3.194,7.475 2.388,7.449 1.628,7.228 0.965,6.859 c -0.054,2.281 1.581,4.415 3.949,4.89 -0.693,0.188 -1.452,0.232 -2.224,0.084 0.626,1.956 2.444,3.379 4.6,3.419 -2.07,1.623 -4.678,2.348 -7.29,2.04 2.179,1.397 4.768,2.212 7.548,2.212 9.142,0 14.307,-7.721 13.995,-14.646 C 22.505,4.163 23.34,3.296 24,2.309 Z"
     id="path2"
     style="fill:#ffffff"
     inkscape:connector-curvature="0" />
</svg>
