<?xml version="1.0" encoding="UTF-8" standalone="no"?>
<svg
   xmlns:dc="http://purl.org/dc/elements/1.1/"
   xmlns:cc="http://creativecommons.org/ns#"
   xmlns:rdf="http://www.w3.org/1999/02/22-rdf-syntax-ns#"
   xmlns:svg="http://www.w3.org/2000/svg"
   xmlns="http://www.w3.org/2000/svg"
   xmlns:sodipodi="http://sodipodi.sourceforge.net/DTD/sodipodi-0.dtd"
   xmlns:inkscape="http://www.inkscape.org/namespaces/inkscape"
   height="64"
   id="Layer_1"
   version="1.1"
   viewBox="0 0 64 64"
   width="64"
   xml:space="preserve"
   sodipodi:docname="menu.svg"
   inkscape:version="1.0 (4035a4fb49, 2020-05-01)"><metadata
     id="metadata9"><rdf:RDF><cc:Work
         rdf:about=""><dc:format>image/svg+xml</dc:format><dc:type
           rdf:resource="http://purl.org/dc/dcmitype/StillImage" /><dc:title></dc:title></cc:Work></rdf:RDF></metadata><defs
     id="defs7" /><sodipodi:namedview
     inkscape:snap-bbox-midpoints="true"
     inkscape:snap-bbox-edge-midpoints="true"
     inkscape:bbox-nodes="true"
     inkscape:bbox-paths="true"
     inkscape:snap-bbox="true"
     inkscape:object-paths="true"
     inkscape:snap-smooth-nodes="true"
     inkscape:snap-intersection-paths="true"
     inkscape:snap-page="true"
     inkscape:snap-text-baseline="true"
     inkscape:snap-midpoints="true"
     inkscape:snap-center="true"
     inkscape:snap-object-midpoints="true"
     inkscape:guide-bbox="true"
     showguides="true"
     inkscape:document-rotation="0"
     pagecolor="#ffffff"
     bordercolor="#666666"
     borderopacity="1"
     objecttolerance="10"
     gridtolerance="10"
     guidetolerance="10"
     inkscape:pageopacity="0"
     inkscape:pageshadow="2"
     inkscape:window-width="1920"
     inkscape:window-height="1053"
     id="namedview5"
     showgrid="false"
     inkscape:zoom="10.109375"
     inkscape:cx="18.930292"
     inkscape:cy="37.890585"
     inkscape:window-x="1080"
     inkscape:window-y="495"
     inkscape:window-maximized="1"
     inkscape:current-layer="Layer_1"><sodipodi:guide
       id="guide832"
       orientation="1,0"
       position="16,16" /><sodipodi:guide
       id="guide836"
       orientation="1,0"
       position="6,16" /><sodipodi:guide
       id="guide885"
       orientation="0,-1"
       position="32,32" /><sodipodi:guide
       id="guide887"
       orientation="0,-1"
       position="32,0" /><sodipodi:guide
       id="guide901"
       orientation="0,-1"
       position="61.5,32" /><sodipodi:guide
       id="guide948"
       orientation="1,0"
       position="0,59.251932" /></sodipodi:namedview><path
     d="m 100.87728,12.03215 v 24 c 0,1.104 0.896,2 2,2 1.104,0 2,-0.896 2,-2 v -24 c 0,-1.104 -0.896,-2 -2,-2 -1.104,0 -2,0.896 -2,2 z m -3.999998,24 v -24 c 0,-1.104 -0.896,-2 -2,-2 -1.104,0 -2,0.896 -2,2 v 24 c 0,1.104 0.896,2 2,2 1.104,0 2,-0.896 2,-2 z m -8,0 v -24 c 0,-1.104 -0.896,-2 -2,-2 -1.104,0 -2,0.896 -2,2 v 24 c 0,1.104 0.896,2 2,2 1.104,0 2,-0.896 2,-2 z"
     id="path2" /><path
     sodipodi:nodetypes="cssssc"
     d="M 0,2.5 H 47.622016 C 55.310419,2.5 61.5,6.9010991 61.5,12.367935 v 39.26413 C 61.5,57.098901 55.310419,61.5 47.622016,61.5 H 0"
     style="fill:none;fill-opacity:1;stroke:#000000;stroke-width:5;stroke-linecap:butt;stroke-linejoin:round;stroke-miterlimit:0;stroke-dasharray:none;stroke-opacity:1;paint-order:stroke fill markers"
     id="path896" /><rect
     rx="2.6509976"
     ry="2.2949009"
     y="9.2488441"
     x="48.331398"
     height="45.502312"
     width="5.3019953"
     id="rect899"
     style="fill:#000000;fill-opacity:1;stroke:#000000;stroke-width:0;stroke-linecap:butt;stroke-linejoin:miter;stroke-miterlimit:0;stroke-dasharray:none;stroke-opacity:1;paint-order:normal" /></svg>
